<?xml version="1.0" encoding="UTF-8" standalone="no"?>
<!DOCTYPE svg PUBLIC "-//W3C//DTD SVG 1.1//EN"
 "http://www.w3.org/Graphics/SVG/1.1/DTD/svg11.dtd">
<!-- Generated by graphviz version 8.0.5 (0)
 -->
<!-- Pages: 1 -->
<svg width="418pt" height="850pt"
 viewBox="0.00 0.00 418.00 850.00" xmlns="http://www.w3.org/2000/svg" xmlns:xlink="http://www.w3.org/1999/xlink">
<g id="graph0" class="graph" transform="scale(1 1) rotate(0) translate(4 846)">
<polygon fill="white" stroke="none" points="-4,4 -4,-846 414,-846 414,4 -4,4"/>
<g id="clust1" class="cluster">
<title>cluster_innocence_lost</title>
<polygon fill="none" stroke="black" points="121,-469.5 121,-834 245,-834 245,-469.5 121,-469.5"/>
<text text-anchor="middle" x="183" y="-816.7" font-family="Times,serif" font-size="14.00">Innocence Lost</text>
</g>
<g id="clust2" class="cluster">
<title>cluster_with_friends_like_these</title>
<polygon fill="none" stroke="black" points="42,-313 42,-461.5 235,-461.5 235,-313 42,-313"/>
<text text-anchor="middle" x="138.5" y="-444.2" font-family="Times,serif" font-size="14.00">With Friends Like These</text>
</g>
<g id="clust4" class="cluster">
<title>cluster_first_nazir_set</title>
<polygon fill="none" stroke="black" points="8,-8 8,-305 402,-305 402,-8 8,-8"/>
<text text-anchor="middle" x="205" y="-287.7" font-family="Times,serif" font-size="14.00">First Nazir Set</text>
</g>
<g id="clust5" class="cluster">
<title>cluster_kill_narfi</title>
<polygon fill="none" stroke="black" points="16,-80 16,-228.5 126,-228.5 126,-80 16,-80"/>
<text text-anchor="middle" x="71" y="-211.2" font-family="Times,serif" font-size="14.00">Kill Narfi</text>
</g>
<g id="clust6" class="cluster">
<title>cluster_kill_beitild</title>
<polygon fill="none" stroke="black" points="134,-80 134,-228.5 244,-228.5 244,-80 134,-80"/>
<text text-anchor="middle" x="189" y="-211.2" font-family="Times,serif" font-size="14.00">Kill Beitild</text>
</g>
<g id="clust7" class="cluster">
<title>cluster_kill_ennodius_papius</title>
<polygon fill="none" stroke="black" points="252,-80 252,-228.5 394,-228.5 394,-80 252,-80"/>
<text text-anchor="middle" x="323" y="-211.2" font-family="Times,serif" font-size="14.00">Kill Ennodius Papius</text>
</g>
<!-- il_10 -->
<g id="node1" class="node">
<title>il_10</title>
<polygon fill="none" stroke="black" points="230.75,-729.5 135.25,-729.5 135.25,-693.5 230.75,-693.5 230.75,-729.5"/>
<text text-anchor="middle" x="183" y="-706.45" font-family="Times,serif" font-size="14.00">talk to aventus</text>
</g>
<!-- il_20 -->
<g id="node4" class="node">
<title>il_20</title>
<polygon fill="none" stroke="black" points="219.12,-657.5 146.88,-657.5 146.88,-621.5 219.12,-621.5 219.12,-657.5"/>
<text text-anchor="middle" x="183" y="-634.45" font-family="Times,serif" font-size="14.00">kill grelod</text>
</g>
<!-- il_10&#45;&gt;il_20 -->
<g id="edge2" class="edge">
<title>il_10&#45;&gt;il_20</title>
<path fill="none" stroke="black" d="M183,-693.2C183,-685.74 183,-676.82 183,-668.47"/>
<polygon fill="black" stroke="black" points="186.5,-668.6 183,-658.6 179.5,-668.6 186.5,-668.6"/>
</g>
<!-- il_200 -->
<g id="node2" class="node">
<title>il_200</title>
<polygon fill="none" stroke="black" points="210,-513.5 156,-513.5 156,-477.5 210,-477.5 210,-513.5"/>
<text text-anchor="middle" x="183" y="-490.45" font-family="Times,serif" font-size="14.00">done</text>
</g>
<!-- sleep -->
<g id="node6" class="node">
<title>sleep</title>
<polygon fill="none" stroke="black" points="209.75,-429 66.25,-429 66.25,-393 209.75,-393 209.75,-429"/>
<text text-anchor="middle" x="138" y="-405.95" font-family="Times,serif" font-size="14.00">sleep and be kidnapped</text>
</g>
<!-- il_200&#45;&gt;sleep -->
<g id="edge16" class="edge">
<title>il_200:e&#45;&gt;sleep:e</title>
<path fill="none" stroke="black" d="M211,-495.5C244.59,-495.5 248.14,-427.88 221.63,-413.62"/>
<polygon fill="black" stroke="black" points="222.55,-410 212,-411 220.87,-416.79 222.55,-410"/>
</g>
<!-- il_5 -->
<g id="node3" class="node">
<title>il_5</title>
<polygon fill="none" stroke="black" points="210,-801.5 156,-801.5 156,-765.5 210,-765.5 210,-801.5"/>
<text text-anchor="middle" x="183" y="-778.45" font-family="Times,serif" font-size="14.00">rumor</text>
</g>
<!-- il_5&#45;&gt;il_10 -->
<g id="edge1" class="edge">
<title>il_5&#45;&gt;il_10</title>
<path fill="none" stroke="black" d="M183,-765.2C183,-757.74 183,-748.82 183,-740.47"/>
<polygon fill="black" stroke="black" points="186.5,-740.6 183,-730.6 179.5,-740.6 186.5,-740.6"/>
</g>
<!-- il_30 -->
<g id="node5" class="node">
<title>il_30</title>
<polygon fill="none" stroke="black" points="236.75,-585.5 129.25,-585.5 129.25,-549.5 236.75,-549.5 236.75,-585.5"/>
<text text-anchor="middle" x="183" y="-562.45" font-family="Times,serif" font-size="14.00">return to aventus</text>
</g>
<!-- il_20&#45;&gt;il_30 -->
<g id="edge3" class="edge">
<title>il_20&#45;&gt;il_30</title>
<path fill="none" stroke="black" d="M183,-621.2C183,-613.74 183,-604.82 183,-596.47"/>
<polygon fill="black" stroke="black" points="186.5,-596.6 183,-586.6 179.5,-596.6 186.5,-596.6"/>
</g>
<!-- il_30&#45;&gt;il_200 -->
<g id="edge4" class="edge">
<title>il_30&#45;&gt;il_200</title>
<path fill="none" stroke="black" d="M183,-549.2C183,-541.74 183,-532.82 183,-524.47"/>
<polygon fill="black" stroke="black" points="186.5,-524.6 183,-514.6 179.5,-524.6 186.5,-524.6"/>
</g>
<!-- kill_cap -->
<g id="node7" class="node">
<title>kill_cap</title>
<polygon fill="none" stroke="black" points="141.5,-357 50.5,-357 50.5,-321 141.5,-321 141.5,-357"/>
<text text-anchor="middle" x="96" y="-333.95" font-family="Times,serif" font-size="14.00">kill captive(s)</text>
</g>
<!-- sleep&#45;&gt;kill_cap -->
<g id="edge5" class="edge">
<title>sleep&#45;&gt;kill_cap</title>
<path fill="none" stroke="black" d="M127.62,-392.7C122.84,-384.73 117.06,-375.1 111.76,-366.26"/>
<polygon fill="black" stroke="black" points="114.41,-364.88 106.26,-358.1 108.41,-368.48 114.41,-364.88"/>
</g>
<!-- kill_astrid -->
<g id="node8" class="node">
<title>kill_astrid</title>
<polygon fill="none" stroke="black" points="226.88,-357 159.12,-357 159.12,-321 226.88,-321 226.88,-357"/>
<text text-anchor="middle" x="193" y="-333.95" font-family="Times,serif" font-size="14.00">kill astrid</text>
</g>
<!-- sleep&#45;&gt;kill_astrid -->
<g id="edge6" class="edge">
<title>sleep&#45;&gt;kill_astrid</title>
<path fill="none" stroke="black" d="M151.6,-392.7C157.99,-384.56 165.74,-374.69 172.81,-365.7"/>
<polygon fill="black" stroke="black" points="176.13,-368.13 179.56,-358.1 170.63,-363.81 176.13,-368.13"/>
</g>
<!-- get_first_set -->
<g id="node9" class="node">
<title>get_first_set</title>
<polygon fill="none" stroke="black" points="255.88,-272.5 50.12,-272.5 50.12,-236.5 255.88,-236.5 255.88,-272.5"/>
<text text-anchor="middle" x="153" y="-249.45" font-family="Times,serif" font-size="14.00">get first set of contracts from nazir</text>
</g>
<!-- kill_cap&#45;&gt;get_first_set -->
<g id="edge17" class="edge">
<title>kill_cap:w&#45;&gt;get_first_set:w</title>
<path fill="none" stroke="black" d="M49,-339C15.41,-339 11.86,-271.38 38.37,-257.12"/>
<polygon fill="black" stroke="black" points="39.13,-260.29 48,-254.5 37.45,-253.5 39.13,-260.29"/>
</g>
<!-- kill_narfi -->
<g id="node10" class="node">
<title>kill_narfi</title>
<polygon fill="none" stroke="black" points="108.62,-196 45.38,-196 45.38,-160 108.62,-160 108.62,-196"/>
<text text-anchor="middle" x="77" y="-172.95" font-family="Times,serif" font-size="14.00">kill narfi</text>
</g>
<!-- get_first_set&#45;&gt;kill_narfi -->
<g id="edge10" class="edge">
<title>get_first_set:sw&#45;&gt;kill_narfi:w</title>
<path fill="none" stroke="black" d="M50,-236.5C34.7,-221.2 22.7,-191.12 33.87,-181.23"/>
<polygon fill="black" stroke="black" points="34.54,-184.38 43,-178 32.41,-177.71 34.54,-184.38"/>
</g>
<!-- kill_beitild -->
<g id="node12" class="node">
<title>kill_beitild</title>
<polygon fill="none" stroke="black" points="225.12,-196 152.88,-196 152.88,-160 225.12,-160 225.12,-196"/>
<text text-anchor="middle" x="189" y="-172.95" font-family="Times,serif" font-size="14.00">kill beitild</text>
</g>
<!-- get_first_set&#45;&gt;kill_beitild -->
<g id="edge11" class="edge">
<title>get_first_set:s&#45;&gt;kill_beitild:w</title>
<path fill="none" stroke="black" d="M153,-236.5C153,-215.98 136.19,-191.42 141.87,-181.97"/>
<polygon fill="black" stroke="black" points="142.97,-184.91 151,-178 140.41,-178.39 142.97,-184.91"/>
</g>
<!-- kill_ennodius_papius -->
<g id="node14" class="node">
<title>kill_ennodius_papius</title>
<polygon fill="none" stroke="black" points="385.75,-196 260.25,-196 260.25,-160 385.75,-160 385.75,-196"/>
<text text-anchor="middle" x="323" y="-172.95" font-family="Times,serif" font-size="14.00">kill ennodius papius</text>
</g>
<!-- get_first_set&#45;&gt;kill_ennodius_papius -->
<g id="edge12" class="edge">
<title>get_first_set:e&#45;&gt;kill_ennodius_papius:w</title>
<path fill="none" stroke="black" d="M257,-254.5C285.56,-254.5 243.57,-200.54 249.53,-183.26"/>
<polygon fill="black" stroke="black" points="250.96,-185.92 258,-178 247.56,-179.8 250.96,-185.92"/>
</g>
<!-- report_to_nazir -->
<g id="node11" class="node">
<title>report_to_nazir</title>
<polygon fill="none" stroke="black" points="117.62,-124 24.38,-124 24.38,-88 117.62,-88 117.62,-124"/>
<text text-anchor="middle" x="71" y="-100.95" font-family="Times,serif" font-size="14.00">report to nazir</text>
</g>
<!-- kill_narfi&#45;&gt;report_to_nazir -->
<g id="edge7" class="edge">
<title>kill_narfi&#45;&gt;report_to_nazir</title>
<path fill="none" stroke="black" d="M75.52,-159.7C74.88,-152.24 74.11,-143.32 73.4,-134.97"/>
<polygon fill="black" stroke="black" points="76.81,-134.77 72.47,-125.1 69.83,-135.37 76.81,-134.77"/>
</g>
<!-- done -->
<g id="node16" class="node">
<title>done</title>
<polygon fill="none" stroke="black" points="216,-52 162,-52 162,-16 216,-16 216,-52"/>
<text text-anchor="middle" x="189" y="-28.95" font-family="Times,serif" font-size="14.00">done</text>
</g>
<!-- report_to_nazir&#45;&gt;done -->
<g id="edge13" class="edge">
<title>report_to_nazir&#45;&gt;done</title>
<path fill="none" stroke="black" d="M100.47,-87.52C116.11,-78.24 135.47,-66.75 152.1,-56.89"/>
<polygon fill="black" stroke="black" points="153.71,-59.41 160.52,-51.3 150.14,-53.39 153.71,-59.41"/>
</g>
<!-- b_report_to_nazir -->
<g id="node13" class="node">
<title>b_report_to_nazir</title>
<polygon fill="none" stroke="black" points="235.62,-124 142.38,-124 142.38,-88 235.62,-88 235.62,-124"/>
<text text-anchor="middle" x="189" y="-100.95" font-family="Times,serif" font-size="14.00">report to nazir</text>
</g>
<!-- kill_beitild&#45;&gt;b_report_to_nazir -->
<g id="edge8" class="edge">
<title>kill_beitild&#45;&gt;b_report_to_nazir</title>
<path fill="none" stroke="black" d="M189,-159.7C189,-152.24 189,-143.32 189,-134.97"/>
<polygon fill="black" stroke="black" points="192.5,-135.1 189,-125.1 185.5,-135.1 192.5,-135.1"/>
</g>
<!-- b_report_to_nazir&#45;&gt;done -->
<g id="edge14" class="edge">
<title>b_report_to_nazir&#45;&gt;done</title>
<path fill="none" stroke="black" d="M189,-87.7C189,-80.24 189,-71.32 189,-62.97"/>
<polygon fill="black" stroke="black" points="192.5,-63.1 189,-53.1 185.5,-63.1 192.5,-63.1"/>
</g>
<!-- e_report_to_nazir -->
<g id="node15" class="node">
<title>e_report_to_nazir</title>
<polygon fill="none" stroke="black" points="361.62,-124 268.38,-124 268.38,-88 361.62,-88 361.62,-124"/>
<text text-anchor="middle" x="315" y="-100.95" font-family="Times,serif" font-size="14.00">report to nazir</text>
</g>
<!-- kill_ennodius_papius&#45;&gt;e_report_to_nazir -->
<g id="edge9" class="edge">
<title>kill_ennodius_papius&#45;&gt;e_report_to_nazir</title>
<path fill="none" stroke="black" d="M321.02,-159.7C320.17,-152.24 319.15,-143.32 318.2,-134.97"/>
<polygon fill="black" stroke="black" points="321.57,-134.64 316.95,-125.1 314.61,-135.44 321.57,-134.64"/>
</g>
<!-- e_report_to_nazir&#45;&gt;done -->
<g id="edge15" class="edge">
<title>e_report_to_nazir&#45;&gt;done</title>
<path fill="none" stroke="black" d="M283.53,-87.52C265.98,-77.77 244.04,-65.58 225.71,-55.39"/>
<polygon fill="black" stroke="black" points="227.67,-51.92 217.23,-50.13 224.27,-58.04 227.67,-51.92"/>
</g>
</g>
</svg>
