<?xml version="1.0" encoding="UTF-8" standalone="no"?>
<!DOCTYPE svg PUBLIC "-//W3C//DTD SVG 1.1//EN"
 "http://www.w3.org/Graphics/SVG/1.1/DTD/svg11.dtd">
<!-- Generated by graphviz version 8.0.5 (0)
 -->
<!-- Pages: 1 -->
<svg width="666pt" height="2018pt"
 viewBox="0.00 0.00 665.75 2017.50" xmlns="http://www.w3.org/2000/svg" xmlns:xlink="http://www.w3.org/1999/xlink">
<g id="graph0" class="graph" transform="scale(1 1) rotate(0) translate(4 2013.5)">
<polygon fill="white" stroke="none" points="-4,4 -4,-2013.5 661.75,-2013.5 661.75,4 -4,4"/>
<g id="clust1" class="cluster">
<title>cluster_innocence_lost</title>
<polygon fill="none" stroke="black" points="94,-1706 94,-2001.5 218,-2001.5 218,-1706 94,-1706"/>
<text text-anchor="middle" x="156" y="-1984.2" font-family="Times,serif" font-size="14.00">Innocence Lost</text>
</g>
<g id="clust2" class="cluster">
<title>cluster_with_friends_like_these</title>
<polygon fill="none" stroke="black" points="42,-1537.5 42,-1687 235,-1687 235,-1537.5 42,-1537.5"/>
<text text-anchor="middle" x="138.5" y="-1669.7" font-family="Times,serif" font-size="14.00">With Friends Like These</text>
</g>
<g id="clust4" class="cluster">
<title>cluster_first_nazir_set</title>
<polygon fill="none" stroke="black" points="8,-1265.5 8,-1518.5 402,-1518.5 402,-1265.5 8,-1265.5"/>
<text text-anchor="middle" x="205" y="-1501.2" font-family="Times,serif" font-size="14.00">First Nazir Set</text>
</g>
<g id="clust5" class="cluster">
<title>cluster_kill_narfi</title>
<polygon fill="none" stroke="black" points="16,-1273.5 16,-1423 126,-1423 126,-1273.5 16,-1273.5"/>
<text text-anchor="middle" x="71" y="-1405.7" font-family="Times,serif" font-size="14.00">Kill Narfi</text>
</g>
<g id="clust6" class="cluster">
<title>cluster_kill_beitild</title>
<polygon fill="none" stroke="black" points="134,-1273.5 134,-1423 244,-1423 244,-1273.5 134,-1273.5"/>
<text text-anchor="middle" x="189" y="-1405.7" font-family="Times,serif" font-size="14.00">Kill Beitild</text>
</g>
<g id="clust7" class="cluster">
<title>cluster_kill_ennodius_papius</title>
<polygon fill="none" stroke="black" points="252,-1273.5 252,-1423 394,-1423 394,-1273.5 252,-1273.5"/>
<text text-anchor="middle" x="323" y="-1405.7" font-family="Times,serif" font-size="14.00">Kill Ennodius Papius</text>
</g>
<g id="clust8" class="cluster">
<title>cluster_mourning_never_comes</title>
<polygon fill="none" stroke="black" points="36,-484 36,-1248.5 596,-1248.5 596,-484 36,-484"/>
<text text-anchor="middle" x="316" y="-1231.2" font-family="Times,serif" font-size="14.00">mourning never comes</text>
</g>
<g id="clust9" class="cluster">
<title>cluster_whispers_in_the_dark</title>
<polygon fill="none" stroke="black" points="24,-8 24,-465 642,-465 642,-8 24,-8"/>
<text text-anchor="middle" x="333" y="-447.7" font-family="Times,serif" font-size="14.00">Whispers in the Dark</text>
</g>
<!-- il_10 -->
<g id="node1" class="node">
<title>il_10</title>
<polygon fill="none" stroke="black" points="203.75,-1896 108.25,-1896 108.25,-1860 203.75,-1860 203.75,-1896"/>
<text text-anchor="middle" x="156" y="-1872.95" font-family="Times,serif" font-size="14.00">talk to aventus</text>
</g>
<!-- il_20 -->
<g id="node3" class="node">
<title>il_20</title>
<polygon fill="none" stroke="black" points="192.12,-1823 119.88,-1823 119.88,-1787 192.12,-1787 192.12,-1823"/>
<text text-anchor="middle" x="156" y="-1799.95" font-family="Times,serif" font-size="14.00">kill grelod</text>
</g>
<!-- il_10&#45;&gt;il_20 -->
<g id="edge2" class="edge">
<title>il_10&#45;&gt;il_20</title>
<path fill="none" stroke="black" d="M156,-1859.81C156,-1852.05 156,-1842.68 156,-1833.95"/>
<polygon fill="black" stroke="black" points="159.5,-1834.03 156,-1824.03 152.5,-1834.03 159.5,-1834.03"/>
</g>
<!-- il_5 -->
<g id="node2" class="node">
<title>il_5</title>
<polygon fill="none" stroke="black" points="183,-1969 129,-1969 129,-1933 183,-1933 183,-1969"/>
<text text-anchor="middle" x="156" y="-1945.95" font-family="Times,serif" font-size="14.00">rumor</text>
</g>
<!-- il_5&#45;&gt;il_10 -->
<g id="edge1" class="edge">
<title>il_5&#45;&gt;il_10</title>
<path fill="none" stroke="black" d="M156,-1932.81C156,-1925.05 156,-1915.68 156,-1906.95"/>
<polygon fill="black" stroke="black" points="159.5,-1907.03 156,-1897.03 152.5,-1907.03 159.5,-1907.03"/>
</g>
<!-- il_30 -->
<g id="node4" class="node">
<title>il_30</title>
<polygon fill="none" stroke="black" points="209.75,-1750 102.25,-1750 102.25,-1714 209.75,-1714 209.75,-1750"/>
<text text-anchor="middle" x="156" y="-1726.95" font-family="Times,serif" font-size="14.00">return to aventus</text>
</g>
<!-- il_20&#45;&gt;il_30 -->
<g id="edge3" class="edge">
<title>il_20&#45;&gt;il_30</title>
<path fill="none" stroke="black" d="M156,-1786.81C156,-1779.05 156,-1769.68 156,-1760.95"/>
<polygon fill="black" stroke="black" points="159.5,-1761.03 156,-1751.03 152.5,-1761.03 159.5,-1761.03"/>
</g>
<!-- sleep -->
<g id="node5" class="node">
<title>sleep</title>
<polygon fill="none" stroke="black" points="209.75,-1654.5 66.25,-1654.5 66.25,-1618.5 209.75,-1618.5 209.75,-1654.5"/>
<text text-anchor="middle" x="138" y="-1631.45" font-family="Times,serif" font-size="14.00">sleep and be kidnapped</text>
</g>
<!-- il_30&#45;&gt;sleep -->
<g id="edge34" class="edge">
<title>il_30:e&#45;&gt;sleep:e</title>
<path fill="none" stroke="black" d="M211,-1732C249.63,-1732 253.1,-1652.89 221.41,-1638.67"/>
<polygon fill="black" stroke="black" points="222.5,-1635.12 212,-1636.5 221.07,-1641.97 222.5,-1635.12"/>
</g>
<!-- kill_cap -->
<g id="node6" class="node">
<title>kill_cap</title>
<polygon fill="none" stroke="black" points="141.5,-1581.5 50.5,-1581.5 50.5,-1545.5 141.5,-1545.5 141.5,-1581.5"/>
<text text-anchor="middle" x="96" y="-1558.45" font-family="Times,serif" font-size="14.00">kill captive(s)</text>
</g>
<!-- sleep&#45;&gt;kill_cap -->
<g id="edge4" class="edge">
<title>sleep&#45;&gt;kill_cap</title>
<path fill="none" stroke="black" d="M127.83,-1618.31C122.98,-1610.12 117.07,-1600.12 111.67,-1590.98"/>
<polygon fill="black" stroke="black" points="114.18,-1589.35 106.07,-1582.53 108.15,-1592.92 114.18,-1589.35"/>
</g>
<!-- kill_astrid -->
<g id="node7" class="node">
<title>kill_astrid</title>
<polygon fill="none" stroke="black" points="226.88,-1581.5 159.12,-1581.5 159.12,-1545.5 226.88,-1545.5 226.88,-1581.5"/>
<text text-anchor="middle" x="193" y="-1558.45" font-family="Times,serif" font-size="14.00">kill astrid</text>
</g>
<!-- sleep&#45;&gt;kill_astrid -->
<g id="edge5" class="edge">
<title>sleep&#45;&gt;kill_astrid</title>
<path fill="none" stroke="black" d="M151.31,-1618.31C157.87,-1609.85 165.9,-1599.48 173.16,-1590.11"/>
<polygon fill="black" stroke="black" points="176.45,-1592.58 179.81,-1582.53 170.92,-1588.29 176.45,-1592.58"/>
</g>
<!-- get_first_set -->
<g id="node8" class="node">
<title>get_first_set</title>
<polygon fill="none" stroke="black" points="255.88,-1486 50.12,-1486 50.12,-1450 255.88,-1450 255.88,-1486"/>
<text text-anchor="middle" x="153" y="-1462.95" font-family="Times,serif" font-size="14.00">get first set of contracts from nazir</text>
</g>
<!-- kill_cap&#45;&gt;get_first_set -->
<g id="edge35" class="edge">
<title>kill_cap:w&#45;&gt;get_first_set:w</title>
<path fill="none" stroke="black" d="M49,-1563.5C10.37,-1563.5 6.9,-1484.39 38.59,-1470.17"/>
<polygon fill="black" stroke="black" points="38.93,-1473.47 48,-1468 37.5,-1466.62 38.93,-1473.47"/>
</g>
<!-- kill_narfi -->
<g id="node9" class="node">
<title>kill_narfi</title>
<polygon fill="none" stroke="black" points="109.62,-1390.5 46.38,-1390.5 46.38,-1354.5 109.62,-1354.5 109.62,-1390.5"/>
<text text-anchor="middle" x="78" y="-1367.45" font-family="Times,serif" font-size="14.00">kill narfi</text>
</g>
<!-- get_first_set&#45;&gt;kill_narfi -->
<g id="edge9" class="edge">
<title>get_first_set:sw&#45;&gt;kill_narfi:w</title>
<path fill="none" stroke="black" d="M50,-1450C28.64,-1428.64 14.41,-1385.33 34.3,-1374.83"/>
<polygon fill="black" stroke="black" points="34.97,-1378.05 44,-1372.5 33.48,-1371.21 34.97,-1378.05"/>
</g>
<!-- kill_beitild -->
<g id="node11" class="node">
<title>kill_beitild</title>
<polygon fill="none" stroke="black" points="225.12,-1390.5 152.88,-1390.5 152.88,-1354.5 225.12,-1354.5 225.12,-1390.5"/>
<text text-anchor="middle" x="189" y="-1367.45" font-family="Times,serif" font-size="14.00">kill beitild</text>
</g>
<!-- get_first_set&#45;&gt;kill_beitild -->
<g id="edge10" class="edge">
<title>get_first_set:s&#45;&gt;kill_beitild:w</title>
<path fill="none" stroke="black" d="M153,-1450C153,-1420.4 126.82,-1384.44 141.32,-1374.91"/>
<polygon fill="black" stroke="black" points="142.02,-1378.12 151,-1372.5 140.47,-1371.29 142.02,-1378.12"/>
</g>
<!-- kill_ennodius_papius -->
<g id="node13" class="node">
<title>kill_ennodius_papius</title>
<polygon fill="none" stroke="black" points="385.75,-1390.5 260.25,-1390.5 260.25,-1354.5 385.75,-1354.5 385.75,-1390.5"/>
<text text-anchor="middle" x="323" y="-1367.45" font-family="Times,serif" font-size="14.00">kill ennodius papius</text>
</g>
<!-- get_first_set&#45;&gt;kill_ennodius_papius -->
<g id="edge11" class="edge">
<title>get_first_set:e&#45;&gt;kill_ennodius_papius:w</title>
<path fill="none" stroke="black" d="M257,-1468C274.25,-1468 250.77,-1404.96 252.75,-1381.31"/>
<polygon fill="black" stroke="black" points="256.07,-1383.68 259,-1373.5 250.36,-1379.63 256.07,-1383.68"/>
</g>
<!-- report_to_nazir -->
<g id="node10" class="node">
<title>report_to_nazir</title>
<polygon fill="none" stroke="black" points="117.62,-1317.5 24.38,-1317.5 24.38,-1281.5 117.62,-1281.5 117.62,-1317.5"/>
<text text-anchor="middle" x="71" y="-1294.45" font-family="Times,serif" font-size="14.00">report to nazir</text>
</g>
<!-- kill_narfi&#45;&gt;report_to_nazir -->
<g id="edge6" class="edge">
<title>kill_narfi&#45;&gt;report_to_nazir</title>
<path fill="none" stroke="black" d="M76.31,-1354.31C75.54,-1346.55 74.62,-1337.18 73.76,-1328.45"/>
<polygon fill="black" stroke="black" points="77.14,-1328.14 72.68,-1318.53 70.18,-1328.82 77.14,-1328.14"/>
</g>
<!-- get_contract -->
<g id="node15" class="node">
<title>get_contract</title>
<polygon fill="none" stroke="black" points="286.12,-1216 141.88,-1216 141.88,-1180 286.12,-1180 286.12,-1216"/>
<text text-anchor="middle" x="214" y="-1192.95" font-family="Times,serif" font-size="14.00">get contract from astrid</text>
</g>
<!-- report_to_nazir&#45;&gt;get_contract -->
<g id="edge36" class="edge">
<title>report_to_nazir&#45;&gt;get_contract:w</title>
<path fill="none" stroke="black" d="M74.62,-1281.45C81.14,-1255.47 97.35,-1208.04 130.25,-1199.38"/>
<polygon fill="black" stroke="black" points="130.53,-1202.74 140,-1198 129.64,-1195.8 130.53,-1202.74"/>
</g>
<!-- b_report_to_nazir -->
<g id="node12" class="node">
<title>b_report_to_nazir</title>
<polygon fill="none" stroke="black" points="235.62,-1317.5 142.38,-1317.5 142.38,-1281.5 235.62,-1281.5 235.62,-1317.5"/>
<text text-anchor="middle" x="189" y="-1294.45" font-family="Times,serif" font-size="14.00">report to nazir</text>
</g>
<!-- kill_beitild&#45;&gt;b_report_to_nazir -->
<g id="edge7" class="edge">
<title>kill_beitild&#45;&gt;b_report_to_nazir</title>
<path fill="none" stroke="black" d="M189,-1354.31C189,-1346.55 189,-1337.18 189,-1328.45"/>
<polygon fill="black" stroke="black" points="192.5,-1328.53 189,-1318.53 185.5,-1328.53 192.5,-1328.53"/>
</g>
<!-- b_report_to_nazir&#45;&gt;get_contract -->
<g id="edge37" class="edge">
<title>b_report_to_nazir:w&#45;&gt;get_contract:w</title>
<path fill="none" stroke="black" d="M141,-1299.5C131.84,-1299.5 130.12,-1232.49 135.85,-1207.37"/>
<polygon fill="black" stroke="black" points="139.25,-1209.45 141,-1199 133.11,-1206.07 139.25,-1209.45"/>
</g>
<!-- e_report_to_nazir -->
<g id="node14" class="node">
<title>e_report_to_nazir</title>
<polygon fill="none" stroke="black" points="361.62,-1317.5 268.38,-1317.5 268.38,-1281.5 361.62,-1281.5 361.62,-1317.5"/>
<text text-anchor="middle" x="315" y="-1294.45" font-family="Times,serif" font-size="14.00">report to nazir</text>
</g>
<!-- kill_ennodius_papius&#45;&gt;e_report_to_nazir -->
<g id="edge8" class="edge">
<title>kill_ennodius_papius&#45;&gt;e_report_to_nazir</title>
<path fill="none" stroke="black" d="M321.06,-1354.31C320.19,-1346.55 319.13,-1337.18 318.15,-1328.45"/>
<polygon fill="black" stroke="black" points="321.52,-1328.07 316.92,-1318.53 314.56,-1328.86 321.52,-1328.07"/>
</g>
<!-- e_report_to_nazir&#45;&gt;get_contract -->
<g id="edge38" class="edge">
<title>e_report_to_nazir:se&#45;&gt;get_contract:e</title>
<path fill="none" stroke="black" d="M362,-1280.5C394.51,-1247.99 344.8,-1204.79 297.87,-1198.72"/>
<polygon fill="black" stroke="black" points="298.21,-1195.17 288,-1198 297.75,-1202.15 298.21,-1195.17"/>
</g>
<!-- talk_to_muiri -->
<g id="node16" class="node">
<title>talk_to_muiri</title>
<polygon fill="none" stroke="black" points="256.12,-1143 171.88,-1143 171.88,-1107 256.12,-1107 256.12,-1143"/>
<text text-anchor="middle" x="214" y="-1119.95" font-family="Times,serif" font-size="14.00">talk to muiri</text>
</g>
<!-- get_contract&#45;&gt;talk_to_muiri -->
<g id="edge12" class="edge">
<title>get_contract&#45;&gt;talk_to_muiri</title>
<path fill="none" stroke="black" d="M214,-1179.81C214,-1172.05 214,-1162.68 214,-1153.95"/>
<polygon fill="black" stroke="black" points="217.5,-1154.03 214,-1144.03 210.5,-1154.03 217.5,-1154.03"/>
</g>
<!-- kill_nilsine -->
<g id="node17" class="node">
<title>kill_nilsine</title>
<polygon fill="none" stroke="black" points="202.38,-1070 71.62,-1070 71.62,-1034 202.38,-1034 202.38,-1070"/>
<text text-anchor="middle" x="137" y="-1046.95" font-family="Times,serif" font-size="14.00">kill nilsine (optional)</text>
</g>
<!-- talk_to_muiri&#45;&gt;kill_nilsine -->
<g id="edge14" class="edge">
<title>talk_to_muiri&#45;&gt;kill_nilsine</title>
<path fill="none" stroke="black" d="M195.36,-1106.81C185.88,-1098.07 174.18,-1087.28 163.76,-1077.67"/>
<polygon fill="black" stroke="black" points="166.46,-1075.48 156.73,-1071.27 161.71,-1080.63 166.46,-1075.48"/>
</g>
<!-- kill_alain -->
<g id="node18" class="node">
<title>kill_alain</title>
<polygon fill="none" stroke="black" points="187,-997 123,-997 123,-961 187,-961 187,-997"/>
<text text-anchor="middle" x="155" y="-973.95" font-family="Times,serif" font-size="14.00">kill alain</text>
</g>
<!-- talk_to_muiri&#45;&gt;kill_alain -->
<g id="edge13" class="edge">
<title>talk_to_muiri&#45;&gt;kill_alain</title>
<path fill="none" stroke="black" d="M217.15,-1106.56C219.72,-1087.77 221.42,-1057.43 211,-1034 206.04,-1022.85 197.61,-1012.85 188.77,-1004.57"/>
<polygon fill="black" stroke="black" points="191.47,-1001.4 181.63,-997.46 186.86,-1006.67 191.47,-1001.4"/>
</g>
<!-- kill_nilsine&#45;&gt;kill_alain -->
<g id="edge15" class="edge">
<title>kill_nilsine&#45;&gt;kill_alain</title>
<path fill="none" stroke="black" d="M141.36,-1033.81C143.35,-1025.96 145.75,-1016.47 147.99,-1007.66"/>
<polygon fill="black" stroke="black" points="151.62,-1008.58 150.68,-998.03 144.83,-1006.86 151.62,-1008.58"/>
</g>
<!-- return_to_muiri -->
<g id="node19" class="node">
<title>return_to_muiri</title>
<polygon fill="none" stroke="black" points="203.12,-924 106.88,-924 106.88,-888 203.12,-888 203.12,-924"/>
<text text-anchor="middle" x="155" y="-900.95" font-family="Times,serif" font-size="14.00">return to muiri</text>
</g>
<!-- kill_alain&#45;&gt;return_to_muiri -->
<g id="edge16" class="edge">
<title>kill_alain&#45;&gt;return_to_muiri</title>
<path fill="none" stroke="black" d="M155,-960.81C155,-953.05 155,-943.68 155,-934.95"/>
<polygon fill="black" stroke="black" points="158.5,-935.03 155,-925.03 151.5,-935.03 158.5,-935.03"/>
</g>
<!-- killed_nilsine -->
<g id="node20" class="node">
<title>killed_nilsine</title>
<polygon fill="none" stroke="black" points="155,-851 71.52,-833 155,-815 238.48,-833 155,-851"/>
<text text-anchor="middle" x="155" y="-827.95" font-family="Times,serif" font-size="14.00">killed nilsine</text>
</g>
<!-- return_to_muiri&#45;&gt;killed_nilsine -->
<g id="edge17" class="edge">
<title>return_to_muiri&#45;&gt;killed_nilsine</title>
<path fill="none" stroke="black" d="M155,-887.81C155,-880.05 155,-870.68 155,-861.95"/>
<polygon fill="black" stroke="black" points="158.5,-862.03 155,-852.03 151.5,-862.03 158.5,-862.03"/>
</g>
<!-- get_ring -->
<g id="node21" class="node">
<title>get_ring</title>
<polygon fill="none" stroke="black" points="208.5,-762.5 63.5,-762.5 63.5,-726.5 208.5,-726.5 208.5,-762.5"/>
<text text-anchor="middle" x="136" y="-739.45" font-family="Times,serif" font-size="14.00">recieve ring from muiri</text>
</g>
<!-- killed_nilsine&#45;&gt;get_ring -->
<g id="edge18" class="edge">
<title>killed_nilsine&#45;&gt;get_ring</title>
<path fill="none" stroke="black" d="M151.34,-815.32C148.72,-803.39 145.13,-787.05 142.08,-773.18"/>
<polygon fill="black" stroke="black" points="145.35,-772.74 139.78,-763.72 138.51,-774.24 145.35,-772.74"/>
<text text-anchor="middle" x="156" y="-783.7" font-family="Times,serif" font-size="14.00">yes</text>
</g>
<!-- report_to_astrid -->
<g id="node22" class="node">
<title>report_to_astrid</title>
<polygon fill="none" stroke="black" points="213.12,-689.5 116.88,-689.5 116.88,-653.5 213.12,-653.5 213.12,-689.5"/>
<text text-anchor="middle" x="165" y="-666.45" font-family="Times,serif" font-size="14.00">report to astrid</text>
</g>
<!-- killed_nilsine&#45;&gt;report_to_astrid -->
<g id="edge19" class="edge">
<title>killed_nilsine&#45;&gt;report_to_astrid</title>
<path fill="none" stroke="black" d="M173.03,-818.59C188.28,-806.03 209.03,-785.75 218,-762.5 223.76,-747.57 224.05,-741.31 218,-726.5 213.52,-715.53 205.62,-705.59 197.26,-697.32"/>
<polygon fill="black" stroke="black" points="199.94,-695.1 190.21,-690.91 195.2,-700.26 199.94,-695.1"/>
<text text-anchor="middle" x="228.75" y="-739.45" font-family="Times,serif" font-size="14.00">no</text>
</g>
<!-- get_ring&#45;&gt;report_to_astrid -->
<g id="edge20" class="edge">
<title>get_ring&#45;&gt;report_to_astrid</title>
<path fill="none" stroke="black" d="M143.02,-726.31C146.3,-718.29 150.28,-708.55 153.94,-699.57"/>
<polygon fill="black" stroke="black" points="157.5,-701.11 158.04,-690.53 151.02,-698.46 157.5,-701.11"/>
</g>
<!-- respond_to_astrid -->
<g id="node23" class="node">
<title>respond_to_astrid</title>
<polygon fill="none" stroke="black" points="165,-616.5 61.98,-598.5 165,-580.5 268.02,-598.5 165,-616.5"/>
<text text-anchor="middle" x="165" y="-593.45" font-family="Times,serif" font-size="14.00">respond to astrid</text>
</g>
<!-- report_to_astrid&#45;&gt;respond_to_astrid -->
<g id="edge21" class="edge">
<title>report_to_astrid&#45;&gt;respond_to_astrid</title>
<path fill="none" stroke="black" d="M165,-653.31C165,-645.55 165,-636.18 165,-627.45"/>
<polygon fill="black" stroke="black" points="168.5,-627.53 165,-617.53 161.5,-627.53 168.5,-627.53"/>
</g>
<!-- favor_same -->
<g id="node24" class="node">
<title>favor_same</title>
<polygon fill="none" stroke="black" points="259.62,-528 70.38,-528 70.38,-492 259.62,-492 259.62,-528"/>
<text text-anchor="middle" x="165" y="-504.95" font-family="Times,serif" font-size="14.00">favor with astrid stays the same</text>
</g>
<!-- respond_to_astrid&#45;&gt;favor_same -->
<g id="edge22" class="edge">
<title>respond_to_astrid&#45;&gt;favor_same</title>
<path fill="none" stroke="black" d="M106.04,-590.35C89.34,-585.29 72.95,-576.77 62.75,-562.5 53.96,-550.2 59.42,-540.67 71.43,-533.34"/>
<polygon fill="black" stroke="black" points="72.88,-536.02 80.22,-528.38 69.72,-529.77 72.88,-536.02"/>
<text text-anchor="middle" x="102.12" y="-549.2" font-family="Times,serif" font-size="14.00">(remain silent)</text>
</g>
<!-- respond_to_astrid&#45;&gt;favor_same -->
<g id="edge23" class="edge">
<title>respond_to_astrid&#45;&gt;favor_same</title>
<path fill="none" stroke="black" d="M165,-580C165,-568.27 165,-552.58 165,-539.12"/>
<polygon fill="black" stroke="black" points="168.5,-539.48 165,-529.48 161.5,-539.48 168.5,-539.48"/>
<text text-anchor="middle" x="278.62" y="-549.2" font-family="Times,serif" font-size="14.00">I did what had to be done. Nothing more.</text>
</g>
<!-- favor_plus_1 -->
<g id="node25" class="node">
<title>favor_plus_1</title>
<polygon fill="none" stroke="black" points="486.5,-528 299.5,-528 299.5,-492 486.5,-492 486.5,-528"/>
<text text-anchor="middle" x="393" y="-504.95" font-family="Times,serif" font-size="14.00">favor with astrid increases by 1</text>
</g>
<!-- respond_to_astrid&#45;&gt;favor_plus_1 -->
<g id="edge24" class="edge">
<title>respond_to_astrid&#45;&gt;favor_plus_1</title>
<path fill="none" stroke="black" d="M253.29,-595.47C309.45,-592.09 374.91,-583.58 393,-562.5 398.51,-556.08 399.94,-547.38 399.57,-538.96"/>
<polygon fill="black" stroke="black" points="402.94,-538.74 398.22,-529.26 396,-539.62 402.94,-538.74"/>
<text text-anchor="middle" x="485.25" y="-549.2" font-family="Times,serif" font-size="14.00">I live only to serve. Hail Sithis!</text>
</g>
<!-- speak_to_astrid -->
<g id="node26" class="node">
<title>speak_to_astrid</title>
<polygon fill="none" stroke="black" points="289.38,-432.5 194.62,-432.5 194.62,-396.5 289.38,-396.5 289.38,-432.5"/>
<text text-anchor="middle" x="242" y="-409.45" font-family="Times,serif" font-size="14.00">speak to astrid</text>
</g>
<!-- favor_same&#45;&gt;speak_to_astrid -->
<g id="edge39" class="edge">
<title>favor_same&#45;&gt;speak_to_astrid:w</title>
<path fill="none" stroke="black" d="M163.16,-491.67C161.48,-467.8 161.91,-426.62 183.43,-416.7"/>
<polygon fill="black" stroke="black" points="183.92,-419.96 193,-414.5 182.5,-413.11 183.92,-419.96"/>
</g>
<!-- favor_plus_1&#45;&gt;speak_to_astrid -->
<g id="edge40" class="edge">
<title>favor_plus_1:e&#45;&gt;speak_to_astrid:e</title>
<path fill="none" stroke="black" d="M488,-510C582.17,-510 401.62,-421.28 300.96,-414.87"/>
<polygon fill="black" stroke="black" points="301.11,-411.33 291,-414.5 300.88,-418.33 301.11,-411.33"/>
</g>
<!-- wd_respond_to_astrid -->
<g id="node27" class="node">
<title>wd_respond_to_astrid</title>
<polygon fill="none" stroke="black" points="242,-359.5 138.98,-341.5 242,-323.5 345.02,-341.5 242,-359.5"/>
<text text-anchor="middle" x="242" y="-336.45" font-family="Times,serif" font-size="14.00">respond to astrid</text>
</g>
<!-- speak_to_astrid&#45;&gt;wd_respond_to_astrid -->
<g id="edge25" class="edge">
<title>speak_to_astrid&#45;&gt;wd_respond_to_astrid</title>
<path fill="none" stroke="black" d="M242,-396.31C242,-388.55 242,-379.18 242,-370.45"/>
<polygon fill="black" stroke="black" points="245.5,-370.53 242,-360.53 238.5,-370.53 245.5,-370.53"/>
</g>
<!-- wd_favor_same -->
<g id="node28" class="node">
<title>wd_favor_same</title>
<polygon fill="none" stroke="black" points="221.62,-271 32.38,-271 32.38,-235 221.62,-235 221.62,-271"/>
<text text-anchor="middle" x="127" y="-247.95" font-family="Times,serif" font-size="14.00">favor with astrid stays the same</text>
</g>
<!-- wd_respond_to_astrid&#45;&gt;wd_favor_same -->
<g id="edge26" class="edge">
<title>wd_respond_to_astrid&#45;&gt;wd_favor_same</title>
<path fill="none" stroke="black" d="M198.94,-330.64C182.98,-325.3 165.65,-317.29 152.75,-305.5 145.62,-298.98 140.2,-290.04 136.22,-281.43"/>
<polygon fill="black" stroke="black" points="139.09,-280.22 132.05,-272.29 132.61,-282.87 139.09,-280.22"/>
<text text-anchor="middle" x="192.12" y="-292.2" font-family="Times,serif" font-size="14.00">(remain silent)</text>
</g>
<!-- wd_favor_plus_1 -->
<g id="node29" class="node">
<title>wd_favor_plus_1</title>
<polygon fill="none" stroke="black" points="426.5,-271 239.5,-271 239.5,-235 426.5,-235 426.5,-271"/>
<text text-anchor="middle" x="333" y="-247.95" font-family="Times,serif" font-size="14.00">favor with astrid increases by 1</text>
</g>
<!-- wd_respond_to_astrid&#45;&gt;wd_favor_plus_1 -->
<g id="edge27" class="edge">
<title>wd_respond_to_astrid&#45;&gt;wd_favor_plus_1</title>
<path fill="none" stroke="black" d="M238.06,-323.72C236.51,-312.86 236.5,-298.95 243.5,-289 246.52,-284.71 250.16,-280.94 254.2,-277.64"/>
<polygon fill="black" stroke="black" points="255.82,-280.07 262.02,-271.48 251.82,-274.33 255.82,-280.07"/>
<text text-anchor="middle" x="326.25" y="-292.2" font-family="Times,serif" font-size="14.00">By Sithis, we must stop them!</text>
</g>
<!-- wd_favor_minus_1 -->
<g id="node30" class="node">
<title>wd_favor_minus_1</title>
<polygon fill="none" stroke="black" points="633.62,-271 444.38,-271 444.38,-235 633.62,-235 633.62,-271"/>
<text text-anchor="middle" x="539" y="-247.95" font-family="Times,serif" font-size="14.00">favor with astrid decreases by 1</text>
</g>
<!-- wd_respond_to_astrid&#45;&gt;wd_favor_minus_1 -->
<g id="edge28" class="edge">
<title>wd_respond_to_astrid&#45;&gt;wd_favor_minus_1</title>
<path fill="none" stroke="black" d="M293.68,-332.14C327.21,-326.13 371.63,-317.06 410,-305.5 437.17,-297.31 466.63,-285.77 490.52,-275.69"/>
<polygon fill="black" stroke="black" points="491.57,-278.61 499.39,-271.47 488.82,-272.18 491.57,-278.61"/>
<text text-anchor="middle" x="556.88" y="-292.2" font-family="Times,serif" font-size="14.00">Astrid, you&#39;re being a bit... paranoid.</text>
</g>
<!-- hide -->
<g id="node31" class="node">
<title>hide</title>
<polygon fill="none" stroke="black" points="427.62,-198 238.38,-198 238.38,-162 427.62,-162 427.62,-198"/>
<text text-anchor="middle" x="333" y="-174.95" font-family="Times,serif" font-size="14.00">hide in the night mothers coffin</text>
</g>
<!-- wd_favor_same&#45;&gt;hide -->
<g id="edge29" class="edge">
<title>wd_favor_same&#45;&gt;hide</title>
<path fill="none" stroke="black" d="M177.66,-234.54C206.22,-224.7 242.09,-212.33 272.16,-201.97"/>
<polygon fill="black" stroke="black" points="273.23,-204.96 281.54,-198.39 270.94,-198.34 273.23,-204.96"/>
</g>
<!-- wd_favor_plus_1&#45;&gt;hide -->
<g id="edge30" class="edge">
<title>wd_favor_plus_1&#45;&gt;hide</title>
<path fill="none" stroke="black" d="M333,-234.81C333,-227.05 333,-217.68 333,-208.95"/>
<polygon fill="black" stroke="black" points="336.5,-209.03 333,-199.03 329.5,-209.03 336.5,-209.03"/>
</g>
<!-- wd_favor_minus_1&#45;&gt;hide -->
<g id="edge31" class="edge">
<title>wd_favor_minus_1&#45;&gt;hide</title>
<path fill="none" stroke="black" d="M488.34,-234.54C459.78,-224.7 423.91,-212.33 393.84,-201.97"/>
<polygon fill="black" stroke="black" points="395.06,-198.34 384.46,-198.39 392.77,-204.96 395.06,-198.34"/>
</g>
<!-- talk_to_cicero -->
<g id="node32" class="node">
<title>talk_to_cicero</title>
<polygon fill="none" stroke="black" points="376.62,-125 289.38,-125 289.38,-89 376.62,-89 376.62,-125"/>
<text text-anchor="middle" x="333" y="-101.95" font-family="Times,serif" font-size="14.00">talk to cicero</text>
</g>
<!-- hide&#45;&gt;talk_to_cicero -->
<g id="edge32" class="edge">
<title>hide&#45;&gt;talk_to_cicero</title>
<path fill="none" stroke="black" d="M333,-161.81C333,-154.05 333,-144.68 333,-135.95"/>
<polygon fill="black" stroke="black" points="336.5,-136.03 333,-126.03 329.5,-136.03 336.5,-136.03"/>
</g>
<!-- wd_speak_to_astrid -->
<g id="node33" class="node">
<title>wd_speak_to_astrid</title>
<polygon fill="none" stroke="black" points="375.12,-52 290.88,-52 290.88,-16 375.12,-16 375.12,-52"/>
<text text-anchor="middle" x="333" y="-28.95" font-family="Times,serif" font-size="14.00">talk to astrid</text>
</g>
<!-- talk_to_cicero&#45;&gt;wd_speak_to_astrid -->
<g id="edge33" class="edge">
<title>talk_to_cicero&#45;&gt;wd_speak_to_astrid</title>
<path fill="none" stroke="black" d="M333,-88.81C333,-81.05 333,-71.68 333,-62.95"/>
<polygon fill="black" stroke="black" points="336.5,-63.03 333,-53.03 329.5,-63.03 336.5,-63.03"/>
</g>
</g>
</svg>
