<?xml version="1.0" encoding="UTF-8" standalone="no"?>
<!DOCTYPE svg PUBLIC "-//W3C//DTD SVG 1.1//EN"
 "http://www.w3.org/Graphics/SVG/1.1/DTD/svg11.dtd">
<!-- Generated by graphviz version 8.0.5 (0)
 -->
<!-- Pages: 1 -->
<svg width="883pt" height="3005pt"
 viewBox="0.00 0.00 882.75 3005.00" xmlns="http://www.w3.org/2000/svg" xmlns:xlink="http://www.w3.org/1999/xlink">
<g id="graph0" class="graph" transform="scale(1 1) rotate(0) translate(4 3001)">
<polygon fill="white" stroke="none" points="-4,4 -4,-3001 878.75,-3001 878.75,4 -4,4"/>
<g id="clust1" class="cluster">
<title>cluster_innocence_lost</title>
<polygon fill="none" stroke="black" points="46,-2693.5 46,-2989 218,-2989 218,-2693.5 46,-2693.5"/>
<text text-anchor="middle" x="132" y="-2971.7" font-family="Times,serif" font-size="14.00">Innocence Lost</text>
</g>
<g id="clust2" class="cluster">
<title>cluster_with_friends_like_these</title>
<polygon fill="none" stroke="black" points="42,-2525 42,-2674.5 235,-2674.5 235,-2525 42,-2525"/>
<text text-anchor="middle" x="138.5" y="-2657.2" font-family="Times,serif" font-size="14.00">With Friends Like These</text>
</g>
<g id="clust4" class="cluster">
<title>cluster_first_nazir_set</title>
<polygon fill="none" stroke="black" points="8,-2253 8,-2506 402,-2506 402,-2253 8,-2253"/>
<text text-anchor="middle" x="205" y="-2488.7" font-family="Times,serif" font-size="14.00">First Nazir Set</text>
</g>
<g id="clust5" class="cluster">
<title>cluster_kill_narfi</title>
<polygon fill="none" stroke="black" points="16,-2261 16,-2410.5 126,-2410.5 126,-2261 16,-2261"/>
<text text-anchor="middle" x="71" y="-2393.2" font-family="Times,serif" font-size="14.00">Kill Narfi</text>
</g>
<g id="clust6" class="cluster">
<title>cluster_kill_beitild</title>
<polygon fill="none" stroke="black" points="134,-2261 134,-2410.5 244,-2410.5 244,-2261 134,-2261"/>
<text text-anchor="middle" x="189" y="-2393.2" font-family="Times,serif" font-size="14.00">Kill Beitild</text>
</g>
<g id="clust7" class="cluster">
<title>cluster_kill_ennodius_papius</title>
<polygon fill="none" stroke="black" points="252,-2261 252,-2410.5 394,-2410.5 394,-2261 252,-2261"/>
<text text-anchor="middle" x="323" y="-2393.2" font-family="Times,serif" font-size="14.00">Kill Ennodius Papius</text>
</g>
<g id="clust8" class="cluster">
<title>cluster_mourning_never_comes</title>
<polygon fill="none" stroke="black" points="65,-1471.5 65,-2236 630,-2236 630,-1471.5 65,-1471.5"/>
<text text-anchor="middle" x="347.5" y="-2218.7" font-family="Times,serif" font-size="14.00">mourning never comes</text>
</g>
<g id="clust9" class="cluster">
<title>cluster_whispers_in_the_dark</title>
<polygon fill="none" stroke="black" points="241,-995.5 241,-1452.5 859,-1452.5 859,-995.5 241,-995.5"/>
<text text-anchor="middle" x="550" y="-1435.2" font-family="Times,serif" font-size="14.00">Whispers in the Dark</text>
</g>
<g id="clust11" class="cluster">
<title>cluster_second_nazir_set</title>
<polygon fill="none" stroke="black" points="275,-723.5 275,-976.5 519,-976.5 519,-723.5 275,-723.5"/>
<text text-anchor="middle" x="397" y="-959.2" font-family="Times,serif" font-size="14.00">Second Nazir Set</text>
</g>
<g id="clust12" class="cluster">
<title>cluster_kill_lurbuk</title>
<polygon fill="none" stroke="black" points="283,-731.5 283,-881 393,-881 393,-731.5 283,-731.5"/>
<text text-anchor="middle" x="338" y="-863.7" font-family="Times,serif" font-size="14.00">Kill Lurbuk</text>
</g>
<g id="clust13" class="cluster">
<title>cluster_kill_hern</title>
<polygon fill="none" stroke="black" points="401,-731.5 401,-881 511,-881 511,-731.5 401,-731.5"/>
<text text-anchor="middle" x="456" y="-863.7" font-family="Times,serif" font-size="14.00">Kill Hern</text>
</g>
<g id="clust14" class="cluster">
<title>cluster_the_silence_has_been_broken</title>
<polygon fill="none" stroke="black" points="261,-411 261,-706.5 519,-706.5 519,-411 261,-411"/>
<text text-anchor="middle" x="390" y="-689.2" font-family="Times,serif" font-size="14.00">The Silence Has Been Broken</text>
</g>
<g id="clust15" class="cluster">
<title>cluster_bound_until_death</title>
<polygon fill="none" stroke="black" points="135,-8 135,-392 565,-392 565,-8 135,-8"/>
<text text-anchor="middle" x="350" y="-374.7" font-family="Times,serif" font-size="14.00">Bound Until Death</text>
</g>
<!-- il_10 -->
<g id="node1" class="node">
<title>il_10</title>
<polygon fill="none" stroke="black" points="203.75,-2883.5 60.25,-2883.5 60.25,-2847.5 203.75,-2847.5 203.75,-2883.5"/>
<text text-anchor="middle" x="132" y="-2860.45" font-family="Times,serif" font-size="14.00">talk to aventus arentino</text>
</g>
<!-- il_20 -->
<g id="node3" class="node">
<title>il_20</title>
<polygon fill="none" stroke="black" points="168.12,-2810.5 95.88,-2810.5 95.88,-2774.5 168.12,-2774.5 168.12,-2810.5"/>
<text text-anchor="middle" x="132" y="-2787.45" font-family="Times,serif" font-size="14.00">kill grelod</text>
</g>
<!-- il_10&#45;&gt;il_20 -->
<g id="edge2" class="edge">
<title>il_10&#45;&gt;il_20</title>
<path fill="none" stroke="black" d="M132,-2847.31C132,-2839.55 132,-2830.18 132,-2821.45"/>
<polygon fill="black" stroke="black" points="135.5,-2821.53 132,-2811.53 128.5,-2821.53 135.5,-2821.53"/>
</g>
<!-- il_5 -->
<g id="node2" class="node">
<title>il_5</title>
<polygon fill="none" stroke="black" points="159,-2956.5 105,-2956.5 105,-2920.5 159,-2920.5 159,-2956.5"/>
<text text-anchor="middle" x="132" y="-2933.45" font-family="Times,serif" font-size="14.00">rumor</text>
</g>
<!-- il_5&#45;&gt;il_10 -->
<g id="edge1" class="edge">
<title>il_5&#45;&gt;il_10</title>
<path fill="none" stroke="black" d="M132,-2920.31C132,-2912.55 132,-2903.18 132,-2894.45"/>
<polygon fill="black" stroke="black" points="135.5,-2894.53 132,-2884.53 128.5,-2894.53 135.5,-2894.53"/>
</g>
<!-- il_30 -->
<g id="node4" class="node">
<title>il_30</title>
<polygon fill="none" stroke="black" points="209.75,-2737.5 54.25,-2737.5 54.25,-2701.5 209.75,-2701.5 209.75,-2737.5"/>
<text text-anchor="middle" x="132" y="-2714.45" font-family="Times,serif" font-size="14.00">return to aventus arentino</text>
</g>
<!-- il_20&#45;&gt;il_30 -->
<g id="edge3" class="edge">
<title>il_20&#45;&gt;il_30</title>
<path fill="none" stroke="black" d="M132,-2774.31C132,-2766.55 132,-2757.18 132,-2748.45"/>
<polygon fill="black" stroke="black" points="135.5,-2748.53 132,-2738.53 128.5,-2748.53 135.5,-2748.53"/>
</g>
<!-- sleep -->
<g id="node5" class="node">
<title>sleep</title>
<polygon fill="none" stroke="black" points="209.75,-2642 66.25,-2642 66.25,-2606 209.75,-2606 209.75,-2642"/>
<text text-anchor="middle" x="138" y="-2618.95" font-family="Times,serif" font-size="14.00">sleep and be kidnapped</text>
</g>
<!-- il_30&#45;&gt;sleep -->
<g id="edge47" class="edge">
<title>il_30:e&#45;&gt;sleep:e</title>
<path fill="none" stroke="black" d="M211,-2719.5C249.63,-2719.5 253.1,-2640.39 221.41,-2626.17"/>
<polygon fill="black" stroke="black" points="222.5,-2622.62 212,-2624 221.07,-2629.47 222.5,-2622.62"/>
</g>
<!-- kill_cap -->
<g id="node6" class="node">
<title>kill_cap</title>
<polygon fill="none" stroke="black" points="141.5,-2569 50.5,-2569 50.5,-2533 141.5,-2533 141.5,-2569"/>
<text text-anchor="middle" x="96" y="-2545.95" font-family="Times,serif" font-size="14.00">kill captive(s)</text>
</g>
<!-- sleep&#45;&gt;kill_cap -->
<g id="edge4" class="edge">
<title>sleep&#45;&gt;kill_cap</title>
<path fill="none" stroke="black" d="M127.83,-2605.81C122.98,-2597.62 117.07,-2587.62 111.67,-2578.48"/>
<polygon fill="black" stroke="black" points="114.18,-2576.85 106.07,-2570.03 108.15,-2580.42 114.18,-2576.85"/>
</g>
<!-- kill_astrid -->
<g id="node7" class="node">
<title>kill_astrid</title>
<polygon fill="none" stroke="black" points="226.88,-2569 159.12,-2569 159.12,-2533 226.88,-2533 226.88,-2569"/>
<text text-anchor="middle" x="193" y="-2545.95" font-family="Times,serif" font-size="14.00">kill astrid</text>
</g>
<!-- sleep&#45;&gt;kill_astrid -->
<g id="edge5" class="edge">
<title>sleep&#45;&gt;kill_astrid</title>
<path fill="none" stroke="black" d="M151.31,-2605.81C157.87,-2597.35 165.9,-2586.98 173.16,-2577.61"/>
<polygon fill="black" stroke="black" points="176.45,-2580.08 179.81,-2570.03 170.92,-2575.79 176.45,-2580.08"/>
</g>
<!-- get_first_set -->
<g id="node8" class="node">
<title>get_first_set</title>
<polygon fill="none" stroke="black" points="255.88,-2473.5 50.12,-2473.5 50.12,-2437.5 255.88,-2437.5 255.88,-2473.5"/>
<text text-anchor="middle" x="153" y="-2450.45" font-family="Times,serif" font-size="14.00">get first set of contracts from nazir</text>
</g>
<!-- kill_cap&#45;&gt;get_first_set -->
<g id="edge48" class="edge">
<title>kill_cap:w&#45;&gt;get_first_set:w</title>
<path fill="none" stroke="black" d="M49,-2551C10.37,-2551 6.9,-2471.89 38.59,-2457.67"/>
<polygon fill="black" stroke="black" points="38.93,-2460.97 48,-2455.5 37.5,-2454.12 38.93,-2460.97"/>
</g>
<!-- kill_narfi -->
<g id="node9" class="node">
<title>kill_narfi</title>
<polygon fill="none" stroke="black" points="109.62,-2378 46.38,-2378 46.38,-2342 109.62,-2342 109.62,-2378"/>
<text text-anchor="middle" x="78" y="-2354.95" font-family="Times,serif" font-size="14.00">kill narfi</text>
</g>
<!-- get_first_set&#45;&gt;kill_narfi -->
<g id="edge9" class="edge">
<title>get_first_set:sw&#45;&gt;kill_narfi:w</title>
<path fill="none" stroke="black" d="M50,-2437.5C28.64,-2416.14 14.41,-2372.83 34.3,-2362.33"/>
<polygon fill="black" stroke="black" points="34.97,-2365.55 44,-2360 33.48,-2358.71 34.97,-2365.55"/>
</g>
<!-- kill_beitild -->
<g id="node11" class="node">
<title>kill_beitild</title>
<polygon fill="none" stroke="black" points="225.12,-2378 152.88,-2378 152.88,-2342 225.12,-2342 225.12,-2378"/>
<text text-anchor="middle" x="189" y="-2354.95" font-family="Times,serif" font-size="14.00">kill beitild</text>
</g>
<!-- get_first_set&#45;&gt;kill_beitild -->
<g id="edge10" class="edge">
<title>get_first_set:s&#45;&gt;kill_beitild:w</title>
<path fill="none" stroke="black" d="M153,-2437.5C153,-2407.9 126.82,-2371.94 141.32,-2362.41"/>
<polygon fill="black" stroke="black" points="142.02,-2365.62 151,-2360 140.47,-2358.79 142.02,-2365.62"/>
</g>
<!-- kill_ennodius_papius -->
<g id="node13" class="node">
<title>kill_ennodius_papius</title>
<polygon fill="none" stroke="black" points="385.75,-2378 260.25,-2378 260.25,-2342 385.75,-2342 385.75,-2378"/>
<text text-anchor="middle" x="323" y="-2354.95" font-family="Times,serif" font-size="14.00">kill ennodius papius</text>
</g>
<!-- get_first_set&#45;&gt;kill_ennodius_papius -->
<g id="edge11" class="edge">
<title>get_first_set:e&#45;&gt;kill_ennodius_papius:w</title>
<path fill="none" stroke="black" d="M257,-2455.5C274.25,-2455.5 250.77,-2392.46 252.75,-2368.81"/>
<polygon fill="black" stroke="black" points="256.07,-2371.18 259,-2361 250.36,-2367.13 256.07,-2371.18"/>
</g>
<!-- report_to_nazir -->
<g id="node10" class="node">
<title>report_to_nazir</title>
<polygon fill="none" stroke="black" points="117.62,-2305 24.38,-2305 24.38,-2269 117.62,-2269 117.62,-2305"/>
<text text-anchor="middle" x="71" y="-2281.95" font-family="Times,serif" font-size="14.00">report to nazir</text>
</g>
<!-- kill_narfi&#45;&gt;report_to_nazir -->
<g id="edge6" class="edge">
<title>kill_narfi&#45;&gt;report_to_nazir</title>
<path fill="none" stroke="black" d="M76.31,-2341.81C75.54,-2334.05 74.62,-2324.68 73.76,-2315.95"/>
<polygon fill="black" stroke="black" points="77.14,-2315.64 72.68,-2306.03 70.18,-2316.32 77.14,-2315.64"/>
</g>
<!-- get_contract -->
<g id="node15" class="node">
<title>get_contract</title>
<polygon fill="none" stroke="black" points="286.12,-2203.5 141.88,-2203.5 141.88,-2167.5 286.12,-2167.5 286.12,-2203.5"/>
<text text-anchor="middle" x="214" y="-2180.45" font-family="Times,serif" font-size="14.00">get contract from astrid</text>
</g>
<!-- report_to_nazir&#45;&gt;get_contract -->
<g id="edge49" class="edge">
<title>report_to_nazir&#45;&gt;get_contract:w</title>
<path fill="none" stroke="black" d="M74.62,-2268.95C81.14,-2242.97 97.35,-2195.54 130.25,-2186.88"/>
<polygon fill="black" stroke="black" points="130.53,-2190.24 140,-2185.5 129.64,-2183.3 130.53,-2190.24"/>
</g>
<!-- b_report_to_nazir -->
<g id="node12" class="node">
<title>b_report_to_nazir</title>
<polygon fill="none" stroke="black" points="235.62,-2305 142.38,-2305 142.38,-2269 235.62,-2269 235.62,-2305"/>
<text text-anchor="middle" x="189" y="-2281.95" font-family="Times,serif" font-size="14.00">report to nazir</text>
</g>
<!-- kill_beitild&#45;&gt;b_report_to_nazir -->
<g id="edge7" class="edge">
<title>kill_beitild&#45;&gt;b_report_to_nazir</title>
<path fill="none" stroke="black" d="M189,-2341.81C189,-2334.05 189,-2324.68 189,-2315.95"/>
<polygon fill="black" stroke="black" points="192.5,-2316.03 189,-2306.03 185.5,-2316.03 192.5,-2316.03"/>
</g>
<!-- b_report_to_nazir&#45;&gt;get_contract -->
<g id="edge50" class="edge">
<title>b_report_to_nazir:w&#45;&gt;get_contract:w</title>
<path fill="none" stroke="black" d="M141,-2287C131.84,-2287 130.12,-2219.99 135.85,-2194.87"/>
<polygon fill="black" stroke="black" points="139.25,-2196.95 141,-2186.5 133.11,-2193.57 139.25,-2196.95"/>
</g>
<!-- e_report_to_nazir -->
<g id="node14" class="node">
<title>e_report_to_nazir</title>
<polygon fill="none" stroke="black" points="361.62,-2305 268.38,-2305 268.38,-2269 361.62,-2269 361.62,-2305"/>
<text text-anchor="middle" x="315" y="-2281.95" font-family="Times,serif" font-size="14.00">report to nazir</text>
</g>
<!-- kill_ennodius_papius&#45;&gt;e_report_to_nazir -->
<g id="edge8" class="edge">
<title>kill_ennodius_papius&#45;&gt;e_report_to_nazir</title>
<path fill="none" stroke="black" d="M321.06,-2341.81C320.19,-2334.05 319.13,-2324.68 318.15,-2315.95"/>
<polygon fill="black" stroke="black" points="321.52,-2315.57 316.92,-2306.03 314.56,-2316.36 321.52,-2315.57"/>
</g>
<!-- e_report_to_nazir&#45;&gt;get_contract -->
<g id="edge51" class="edge">
<title>e_report_to_nazir:se&#45;&gt;get_contract:e</title>
<path fill="none" stroke="black" d="M362,-2268C394.51,-2235.49 344.8,-2192.29 297.87,-2186.22"/>
<polygon fill="black" stroke="black" points="298.21,-2182.67 288,-2185.5 297.75,-2189.65 298.21,-2182.67"/>
</g>
<!-- talk_to_muiri -->
<g id="node16" class="node">
<title>talk_to_muiri</title>
<polygon fill="none" stroke="black" points="256.12,-2130.5 171.88,-2130.5 171.88,-2094.5 256.12,-2094.5 256.12,-2130.5"/>
<text text-anchor="middle" x="214" y="-2107.45" font-family="Times,serif" font-size="14.00">talk to muiri</text>
</g>
<!-- get_contract&#45;&gt;talk_to_muiri -->
<g id="edge12" class="edge">
<title>get_contract&#45;&gt;talk_to_muiri</title>
<path fill="none" stroke="black" d="M214,-2167.31C214,-2159.55 214,-2150.18 214,-2141.45"/>
<polygon fill="black" stroke="black" points="217.5,-2141.53 214,-2131.53 210.5,-2141.53 217.5,-2141.53"/>
</g>
<!-- kill_nilsine -->
<g id="node17" class="node">
<title>kill_nilsine</title>
<polygon fill="none" stroke="black" points="218.38,-2057.5 87.62,-2057.5 87.62,-2021.5 218.38,-2021.5 218.38,-2057.5"/>
<text text-anchor="middle" x="153" y="-2034.45" font-family="Times,serif" font-size="14.00">kill nilsine (optional)</text>
</g>
<!-- talk_to_muiri&#45;&gt;kill_nilsine -->
<g id="edge14" class="edge">
<title>talk_to_muiri&#45;&gt;kill_nilsine</title>
<path fill="none" stroke="black" d="M199.23,-2094.31C191.89,-2085.77 182.87,-2075.27 174.76,-2065.82"/>
<polygon fill="black" stroke="black" points="176.8,-2063.83 167.63,-2058.53 171.49,-2068.39 176.8,-2063.83"/>
</g>
<!-- kill_alain -->
<g id="node18" class="node">
<title>kill_alain</title>
<polygon fill="none" stroke="black" points="209,-1984.5 145,-1984.5 145,-1948.5 209,-1948.5 209,-1984.5"/>
<text text-anchor="middle" x="177" y="-1961.45" font-family="Times,serif" font-size="14.00">kill alain</text>
</g>
<!-- talk_to_muiri&#45;&gt;kill_alain -->
<g id="edge13" class="edge">
<title>talk_to_muiri&#45;&gt;kill_alain</title>
<path fill="none" stroke="black" d="M221.49,-2094.32C228.45,-2075.76 236.45,-2045.61 227,-2021.5 222.76,-2010.68 215.22,-2000.74 207.27,-1992.41"/>
<polygon fill="black" stroke="black" points="210.21,-1990.41 200.6,-1985.94 205.32,-1995.43 210.21,-1990.41"/>
</g>
<!-- kill_nilsine&#45;&gt;kill_alain -->
<g id="edge15" class="edge">
<title>kill_nilsine&#45;&gt;kill_alain</title>
<path fill="none" stroke="black" d="M158.81,-2021.31C161.49,-2013.38 164.74,-2003.76 167.75,-1994.86"/>
<polygon fill="black" stroke="black" points="171.36,-1996.12 171.24,-1985.53 164.73,-1993.88 171.36,-1996.12"/>
</g>
<!-- return_to_muiri -->
<g id="node19" class="node">
<title>return_to_muiri</title>
<polygon fill="none" stroke="black" points="225.12,-1911.5 128.88,-1911.5 128.88,-1875.5 225.12,-1875.5 225.12,-1911.5"/>
<text text-anchor="middle" x="177" y="-1888.45" font-family="Times,serif" font-size="14.00">return to muiri</text>
</g>
<!-- kill_alain&#45;&gt;return_to_muiri -->
<g id="edge16" class="edge">
<title>kill_alain&#45;&gt;return_to_muiri</title>
<path fill="none" stroke="black" d="M177,-1948.31C177,-1940.55 177,-1931.18 177,-1922.45"/>
<polygon fill="black" stroke="black" points="180.5,-1922.53 177,-1912.53 173.5,-1922.53 180.5,-1922.53"/>
</g>
<!-- killed_nilsine -->
<g id="node20" class="node">
<title>killed_nilsine</title>
<polygon fill="none" stroke="black" points="177,-1838.5 93.52,-1820.5 177,-1802.5 260.48,-1820.5 177,-1838.5"/>
<text text-anchor="middle" x="177" y="-1815.45" font-family="Times,serif" font-size="14.00">killed nilsine</text>
</g>
<!-- return_to_muiri&#45;&gt;killed_nilsine -->
<g id="edge17" class="edge">
<title>return_to_muiri&#45;&gt;killed_nilsine</title>
<path fill="none" stroke="black" d="M177,-1875.31C177,-1867.55 177,-1858.18 177,-1849.45"/>
<polygon fill="black" stroke="black" points="180.5,-1849.53 177,-1839.53 173.5,-1849.53 180.5,-1849.53"/>
</g>
<!-- get_ring -->
<g id="node21" class="node">
<title>get_ring</title>
<polygon fill="none" stroke="black" points="226.5,-1750 81.5,-1750 81.5,-1714 226.5,-1714 226.5,-1750"/>
<text text-anchor="middle" x="154" y="-1726.95" font-family="Times,serif" font-size="14.00">recieve ring from muiri</text>
</g>
<!-- killed_nilsine&#45;&gt;get_ring -->
<g id="edge18" class="edge">
<title>killed_nilsine&#45;&gt;get_ring</title>
<path fill="none" stroke="black" d="M172.67,-1803.23C169.51,-1791.34 165.14,-1774.91 161.43,-1760.93"/>
<polygon fill="black" stroke="black" points="164.57,-1760.15 158.62,-1751.38 157.81,-1761.95 164.57,-1760.15"/>
<text text-anchor="middle" x="177" y="-1771.2" font-family="Times,serif" font-size="14.00">yes</text>
</g>
<!-- report_to_astrid -->
<g id="node22" class="node">
<title>report_to_astrid</title>
<polygon fill="none" stroke="black" points="247.12,-1677 150.88,-1677 150.88,-1641 247.12,-1641 247.12,-1677"/>
<text text-anchor="middle" x="199" y="-1653.95" font-family="Times,serif" font-size="14.00">report to astrid</text>
</g>
<!-- killed_nilsine&#45;&gt;report_to_astrid -->
<g id="edge19" class="edge">
<title>killed_nilsine&#45;&gt;report_to_astrid</title>
<path fill="none" stroke="black" d="M193.91,-1805.84C208.21,-1793.12 227.65,-1772.73 236,-1750 241.52,-1734.98 240.73,-1729.28 236,-1714 232.89,-1703.96 227.19,-1694.12 221.19,-1685.65"/>
<polygon fill="black" stroke="black" points="223.49,-1683.9 214.66,-1678.05 217.92,-1688.13 223.49,-1683.9"/>
<text text-anchor="middle" x="245.75" y="-1726.95" font-family="Times,serif" font-size="14.00">no</text>
</g>
<!-- get_ring&#45;&gt;report_to_astrid -->
<g id="edge20" class="edge">
<title>get_ring&#45;&gt;report_to_astrid</title>
<path fill="none" stroke="black" d="M164.89,-1713.81C170.14,-1705.53 176.56,-1695.41 182.4,-1686.19"/>
<polygon fill="black" stroke="black" points="185.81,-1688.35 188.21,-1678.03 179.9,-1684.6 185.81,-1688.35"/>
</g>
<!-- respond_to_astrid -->
<g id="node23" class="node">
<title>respond_to_astrid</title>
<polygon fill="none" stroke="black" points="199,-1604 95.98,-1586 199,-1568 302.02,-1586 199,-1604"/>
<text text-anchor="middle" x="199" y="-1580.95" font-family="Times,serif" font-size="14.00">respond to astrid</text>
</g>
<!-- report_to_astrid&#45;&gt;respond_to_astrid -->
<g id="edge21" class="edge">
<title>report_to_astrid&#45;&gt;respond_to_astrid</title>
<path fill="none" stroke="black" d="M199,-1640.81C199,-1633.05 199,-1623.68 199,-1614.95"/>
<polygon fill="black" stroke="black" points="202.5,-1615.03 199,-1605.03 195.5,-1615.03 202.5,-1615.03"/>
</g>
<!-- favor_same -->
<g id="node24" class="node">
<title>favor_same</title>
<polygon fill="none" stroke="black" points="293.62,-1515.5 104.38,-1515.5 104.38,-1479.5 293.62,-1479.5 293.62,-1515.5"/>
<text text-anchor="middle" x="199" y="-1492.45" font-family="Times,serif" font-size="14.00">favor with astrid stays the same</text>
</g>
<!-- respond_to_astrid&#45;&gt;favor_same -->
<g id="edge22" class="edge">
<title>respond_to_astrid&#45;&gt;favor_same</title>
<path fill="none" stroke="black" d="M143.06,-1577.31C109.1,-1570.14 75.29,-1556.91 92.25,-1533.5 95.38,-1529.19 99.05,-1525.39 103.12,-1522.06"/>
<polygon fill="black" stroke="black" points="104.8,-1524.46 110.98,-1515.85 100.78,-1518.73 104.8,-1524.46"/>
<text text-anchor="middle" x="135.38" y="-1536.7" font-family="Times,serif" font-size="14.00">(Remain silent)</text>
</g>
<!-- respond_to_astrid&#45;&gt;favor_same -->
<g id="edge23" class="edge">
<title>respond_to_astrid&#45;&gt;favor_same</title>
<path fill="none" stroke="black" d="M199,-1567.5C199,-1555.77 199,-1540.08 199,-1526.62"/>
<polygon fill="black" stroke="black" points="202.5,-1526.98 199,-1516.98 195.5,-1526.98 202.5,-1526.98"/>
<text text-anchor="middle" x="312.62" y="-1536.7" font-family="Times,serif" font-size="14.00">I did what had to be done. Nothing more.</text>
</g>
<!-- favor_plus_1 -->
<g id="node25" class="node">
<title>favor_plus_1</title>
<polygon fill="none" stroke="black" points="520.5,-1515.5 333.5,-1515.5 333.5,-1479.5 520.5,-1479.5 520.5,-1515.5"/>
<text text-anchor="middle" x="427" y="-1492.45" font-family="Times,serif" font-size="14.00">favor with astrid increases by 1</text>
</g>
<!-- respond_to_astrid&#45;&gt;favor_plus_1 -->
<g id="edge24" class="edge">
<title>respond_to_astrid&#45;&gt;favor_plus_1</title>
<path fill="none" stroke="black" d="M287.29,-1582.97C343.45,-1579.59 408.91,-1571.08 427,-1550 432.51,-1543.58 433.94,-1534.88 433.57,-1526.46"/>
<polygon fill="black" stroke="black" points="436.94,-1526.24 432.22,-1516.76 430,-1527.12 436.94,-1526.24"/>
<text text-anchor="middle" x="519.25" y="-1536.7" font-family="Times,serif" font-size="14.00">I live only to serve. Hail Sithis!</text>
</g>
<!-- speak_to_astrid -->
<g id="node26" class="node">
<title>speak_to_astrid</title>
<polygon fill="none" stroke="black" points="506.38,-1420 411.62,-1420 411.62,-1384 506.38,-1384 506.38,-1420"/>
<text text-anchor="middle" x="459" y="-1396.95" font-family="Times,serif" font-size="14.00">speak to astrid</text>
</g>
<!-- favor_same&#45;&gt;speak_to_astrid -->
<g id="edge52" class="edge">
<title>favor_same&#45;&gt;speak_to_astrid:w</title>
<path fill="none" stroke="black" d="M221.07,-1479.17C256.36,-1453.16 328.83,-1406.63 400.44,-1402.32"/>
<polygon fill="black" stroke="black" points="400.11,-1405.8 410,-1402 399.9,-1398.81 400.11,-1405.8"/>
</g>
<!-- favor_plus_1&#45;&gt;speak_to_astrid -->
<g id="edge53" class="edge">
<title>favor_plus_1:e&#45;&gt;speak_to_astrid:nw</title>
<path fill="none" stroke="black" d="M522,-1497.5C530.01,-1497.5 525.3,-1486.26 521,-1479.5 494.01,-1437.1 392.81,-1455.82 405.3,-1429.66"/>
<polygon fill="black" stroke="black" points="408.65,-1432.05 412,-1422 403.11,-1427.77 408.65,-1432.05"/>
</g>
<!-- wd_respond_to_astrid -->
<g id="node27" class="node">
<title>wd_respond_to_astrid</title>
<polygon fill="none" stroke="black" points="459,-1347 355.98,-1329 459,-1311 562.02,-1329 459,-1347"/>
<text text-anchor="middle" x="459" y="-1323.95" font-family="Times,serif" font-size="14.00">respond to astrid</text>
</g>
<!-- speak_to_astrid&#45;&gt;wd_respond_to_astrid -->
<g id="edge25" class="edge">
<title>speak_to_astrid&#45;&gt;wd_respond_to_astrid</title>
<path fill="none" stroke="black" d="M459,-1383.81C459,-1376.05 459,-1366.68 459,-1357.95"/>
<polygon fill="black" stroke="black" points="462.5,-1358.03 459,-1348.03 455.5,-1358.03 462.5,-1358.03"/>
</g>
<!-- wd_favor_same -->
<g id="node28" class="node">
<title>wd_favor_same</title>
<polygon fill="none" stroke="black" points="438.62,-1258.5 249.38,-1258.5 249.38,-1222.5 438.62,-1222.5 438.62,-1258.5"/>
<text text-anchor="middle" x="344" y="-1235.45" font-family="Times,serif" font-size="14.00">favor with astrid stays the same</text>
</g>
<!-- wd_respond_to_astrid&#45;&gt;wd_favor_same -->
<g id="edge26" class="edge">
<title>wd_respond_to_astrid&#45;&gt;wd_favor_same</title>
<path fill="none" stroke="black" d="M412.35,-1318.76C395.81,-1313.53 378.12,-1305.44 365.25,-1293 358.6,-1286.57 353.95,-1277.76 350.74,-1269.24"/>
<polygon fill="black" stroke="black" points="353.78,-1268.27 347.4,-1259.81 347.12,-1270.4 353.78,-1268.27"/>
<text text-anchor="middle" x="407.38" y="-1279.7" font-family="Times,serif" font-size="14.00">(Remain silent)</text>
</g>
<!-- wd_favor_plus_1 -->
<g id="node29" class="node">
<title>wd_favor_plus_1</title>
<polygon fill="none" stroke="black" points="643.5,-1258.5 456.5,-1258.5 456.5,-1222.5 643.5,-1222.5 643.5,-1258.5"/>
<text text-anchor="middle" x="550" y="-1235.45" font-family="Times,serif" font-size="14.00">favor with astrid increases by 1</text>
</g>
<!-- wd_respond_to_astrid&#45;&gt;wd_favor_plus_1 -->
<g id="edge27" class="edge">
<title>wd_respond_to_astrid&#45;&gt;wd_favor_plus_1</title>
<path fill="none" stroke="black" d="M455.06,-1311.22C453.51,-1300.36 453.5,-1286.45 460.5,-1276.5 463.52,-1272.21 467.16,-1268.44 471.2,-1265.14"/>
<polygon fill="black" stroke="black" points="472.82,-1267.57 479.02,-1258.98 468.82,-1261.83 472.82,-1267.57"/>
<text text-anchor="middle" x="543.25" y="-1279.7" font-family="Times,serif" font-size="14.00">By Sithis, we must stop them!</text>
</g>
<!-- wd_favor_minus_1 -->
<g id="node30" class="node">
<title>wd_favor_minus_1</title>
<polygon fill="none" stroke="black" points="850.62,-1258.5 661.38,-1258.5 661.38,-1222.5 850.62,-1222.5 850.62,-1258.5"/>
<text text-anchor="middle" x="756" y="-1235.45" font-family="Times,serif" font-size="14.00">favor with astrid decreases by 1</text>
</g>
<!-- wd_respond_to_astrid&#45;&gt;wd_favor_minus_1 -->
<g id="edge28" class="edge">
<title>wd_respond_to_astrid&#45;&gt;wd_favor_minus_1</title>
<path fill="none" stroke="black" d="M510.68,-1319.64C544.21,-1313.63 588.63,-1304.56 627,-1293 654.17,-1284.81 683.63,-1273.27 707.52,-1263.19"/>
<polygon fill="black" stroke="black" points="708.57,-1266.11 716.39,-1258.97 705.82,-1259.68 708.57,-1266.11"/>
<text text-anchor="middle" x="773.88" y="-1279.7" font-family="Times,serif" font-size="14.00">Astrid, you&#39;re being a bit... paranoid.</text>
</g>
<!-- hide -->
<g id="node31" class="node">
<title>hide</title>
<polygon fill="none" stroke="black" points="644.62,-1185.5 455.38,-1185.5 455.38,-1149.5 644.62,-1149.5 644.62,-1185.5"/>
<text text-anchor="middle" x="550" y="-1162.45" font-family="Times,serif" font-size="14.00">hide in the night mothers coffin</text>
</g>
<!-- wd_favor_same&#45;&gt;hide -->
<g id="edge29" class="edge">
<title>wd_favor_same&#45;&gt;hide</title>
<path fill="none" stroke="black" d="M394.66,-1222.04C423.22,-1212.2 459.09,-1199.83 489.16,-1189.47"/>
<polygon fill="black" stroke="black" points="490.23,-1192.46 498.54,-1185.89 487.94,-1185.84 490.23,-1192.46"/>
</g>
<!-- wd_favor_plus_1&#45;&gt;hide -->
<g id="edge30" class="edge">
<title>wd_favor_plus_1&#45;&gt;hide</title>
<path fill="none" stroke="black" d="M550,-1222.31C550,-1214.55 550,-1205.18 550,-1196.45"/>
<polygon fill="black" stroke="black" points="553.5,-1196.53 550,-1186.53 546.5,-1196.53 553.5,-1196.53"/>
</g>
<!-- wd_favor_minus_1&#45;&gt;hide -->
<g id="edge31" class="edge">
<title>wd_favor_minus_1&#45;&gt;hide</title>
<path fill="none" stroke="black" d="M705.34,-1222.04C676.78,-1212.2 640.91,-1199.83 610.84,-1189.47"/>
<polygon fill="black" stroke="black" points="612.06,-1185.84 601.46,-1185.89 609.77,-1192.46 612.06,-1185.84"/>
</g>
<!-- talk_to_cicero -->
<g id="node32" class="node">
<title>talk_to_cicero</title>
<polygon fill="none" stroke="black" points="593.62,-1112.5 506.38,-1112.5 506.38,-1076.5 593.62,-1076.5 593.62,-1112.5"/>
<text text-anchor="middle" x="550" y="-1089.45" font-family="Times,serif" font-size="14.00">talk to cicero</text>
</g>
<!-- hide&#45;&gt;talk_to_cicero -->
<g id="edge32" class="edge">
<title>hide&#45;&gt;talk_to_cicero</title>
<path fill="none" stroke="black" d="M550,-1149.31C550,-1141.55 550,-1132.18 550,-1123.45"/>
<polygon fill="black" stroke="black" points="553.5,-1123.53 550,-1113.53 546.5,-1123.53 553.5,-1123.53"/>
</g>
<!-- wd_speak_to_astrid -->
<g id="node33" class="node">
<title>wd_speak_to_astrid</title>
<polygon fill="none" stroke="black" points="592.12,-1039.5 507.88,-1039.5 507.88,-1003.5 592.12,-1003.5 592.12,-1039.5"/>
<text text-anchor="middle" x="550" y="-1016.45" font-family="Times,serif" font-size="14.00">talk to astrid</text>
</g>
<!-- talk_to_cicero&#45;&gt;wd_speak_to_astrid -->
<g id="edge33" class="edge">
<title>talk_to_cicero&#45;&gt;wd_speak_to_astrid</title>
<path fill="none" stroke="black" d="M550,-1076.31C550,-1068.55 550,-1059.18 550,-1050.45"/>
<polygon fill="black" stroke="black" points="553.5,-1050.53 550,-1040.53 546.5,-1050.53 553.5,-1050.53"/>
</g>
<!-- get_second_set -->
<g id="node34" class="node">
<title>get_second_set</title>
<polygon fill="none" stroke="black" points="507.75,-944 286.25,-944 286.25,-908 507.75,-908 507.75,-944"/>
<text text-anchor="middle" x="397" y="-920.95" font-family="Times,serif" font-size="14.00">get second set of contracts from nazir</text>
</g>
<!-- wd_speak_to_astrid&#45;&gt;get_second_set -->
<g id="edge54" class="edge">
<title>wd_speak_to_astrid:w&#45;&gt;get_second_set:e</title>
<path fill="none" stroke="black" d="M507,-1021.5C469.52,-1021.5 532.86,-947.07 519.01,-929.63"/>
<polygon fill="black" stroke="black" points="520.59,-926.12 510,-926 518.21,-932.7 520.59,-926.12"/>
</g>
<!-- kill_lurbuk -->
<g id="node35" class="node">
<title>kill_lurbuk</title>
<polygon fill="none" stroke="black" points="368.5,-848.5 295.5,-848.5 295.5,-812.5 368.5,-812.5 368.5,-848.5"/>
<text text-anchor="middle" x="332" y="-825.45" font-family="Times,serif" font-size="14.00">kill lurbuk</text>
</g>
<!-- get_second_set&#45;&gt;kill_lurbuk -->
<g id="edge37" class="edge">
<title>get_second_set:w&#45;&gt;kill_lurbuk:w</title>
<path fill="none" stroke="black" d="M285,-926C246.2,-926 250.17,-846.89 283.34,-832.67"/>
<polygon fill="black" stroke="black" points="283.9,-835.93 293,-830.5 282.5,-829.07 283.9,-835.93"/>
</g>
<!-- kill_hern -->
<g id="node37" class="node">
<title>kill_hern</title>
<polygon fill="none" stroke="black" points="498.88,-848.5 437.12,-848.5 437.12,-812.5 498.88,-812.5 498.88,-848.5"/>
<text text-anchor="middle" x="468" y="-825.45" font-family="Times,serif" font-size="14.00">kill hern</text>
</g>
<!-- get_second_set&#45;&gt;kill_hern -->
<g id="edge36" class="edge">
<title>get_second_set:e&#45;&gt;kill_hern:e</title>
<path fill="none" stroke="black" d="M509,-926C547.8,-926 543.83,-846.89 510.66,-832.67"/>
<polygon fill="black" stroke="black" points="511.5,-829.07 501,-830.5 510.1,-835.93 511.5,-829.07"/>
</g>
<!-- l_report_to_nazir -->
<g id="node36" class="node">
<title>l_report_to_nazir</title>
<polygon fill="none" stroke="black" points="384.62,-775.5 291.38,-775.5 291.38,-739.5 384.62,-739.5 384.62,-775.5"/>
<text text-anchor="middle" x="338" y="-752.45" font-family="Times,serif" font-size="14.00">report to nazir</text>
</g>
<!-- kill_lurbuk&#45;&gt;l_report_to_nazir -->
<g id="edge34" class="edge">
<title>kill_lurbuk&#45;&gt;l_report_to_nazir</title>
<path fill="none" stroke="black" d="M333.45,-812.31C334.11,-804.55 334.9,-795.18 335.64,-786.45"/>
<polygon fill="black" stroke="black" points="339.21,-786.79 336.56,-776.53 332.23,-786.2 339.21,-786.79"/>
</g>
<!-- meet_amaund -->
<g id="node39" class="node">
<title>meet_amaund</title>
<polygon fill="none" stroke="black" points="510.5,-674 269.5,-674 269.5,-638 510.5,-638 510.5,-674"/>
<text text-anchor="middle" x="390" y="-650.95" font-family="Times,serif" font-size="14.00">meet Amaund Motierre inside Volunruud</text>
</g>
<!-- l_report_to_nazir&#45;&gt;meet_amaund -->
<g id="edge55" class="edge">
<title>l_report_to_nazir:w&#45;&gt;meet_amaund:w</title>
<path fill="none" stroke="black" d="M290,-757.5C247.81,-757.5 225.8,-672.7 257.58,-658.12"/>
<polygon fill="black" stroke="black" points="257.9,-661.42 267,-656 256.5,-654.56 257.9,-661.42"/>
</g>
<!-- h_report_to_nazir -->
<g id="node38" class="node">
<title>h_report_to_nazir</title>
<polygon fill="none" stroke="black" points="502.62,-775.5 409.38,-775.5 409.38,-739.5 502.62,-739.5 502.62,-775.5"/>
<text text-anchor="middle" x="456" y="-752.45" font-family="Times,serif" font-size="14.00">report to nazir</text>
</g>
<!-- kill_hern&#45;&gt;h_report_to_nazir -->
<g id="edge35" class="edge">
<title>kill_hern&#45;&gt;h_report_to_nazir</title>
<path fill="none" stroke="black" d="M465.1,-812.31C463.77,-804.46 462.16,-794.97 460.67,-786.16"/>
<polygon fill="black" stroke="black" points="464,-785.81 458.88,-776.53 457.09,-786.97 464,-785.81"/>
</g>
<!-- h_report_to_nazir&#45;&gt;meet_amaund -->
<g id="edge56" class="edge">
<title>h_report_to_nazir:e&#45;&gt;meet_amaund:e</title>
<path fill="none" stroke="black" d="M504,-757.5C545.36,-757.5 555.6,-672.7 522.5,-658.12"/>
<polygon fill="black" stroke="black" points="523.5,-654.55 513,-656 522.11,-661.41 523.5,-654.55"/>
</g>
<!-- bring_letter_to_astrid -->
<g id="node40" class="node">
<title>bring_letter_to_astrid</title>
<polygon fill="none" stroke="black" points="492.5,-601 287.5,-601 287.5,-565 492.5,-565 492.5,-601"/>
<text text-anchor="middle" x="390" y="-577.95" font-family="Times,serif" font-size="14.00">take his letter and amulet to Astrid</text>
</g>
<!-- meet_amaund&#45;&gt;bring_letter_to_astrid -->
<g id="edge38" class="edge">
<title>meet_amaund&#45;&gt;bring_letter_to_astrid</title>
<path fill="none" stroke="black" d="M390,-637.81C390,-630.05 390,-620.68 390,-611.95"/>
<polygon fill="black" stroke="black" points="393.5,-612.03 390,-602.03 386.5,-612.03 393.5,-612.03"/>
</g>
<!-- meet_delvin -->
<g id="node41" class="node">
<title>meet_delvin</title>
<polygon fill="none" stroke="black" points="493.62,-528 286.38,-528 286.38,-492 493.62,-492 493.62,-528"/>
<text text-anchor="middle" x="390" y="-504.95" font-family="Times,serif" font-size="14.00">Take the amulet to Delvin Mallory</text>
</g>
<!-- bring_letter_to_astrid&#45;&gt;meet_delvin -->
<g id="edge39" class="edge">
<title>bring_letter_to_astrid&#45;&gt;meet_delvin</title>
<path fill="none" stroke="black" d="M390,-564.81C390,-557.05 390,-547.68 390,-538.95"/>
<polygon fill="black" stroke="black" points="393.5,-539.03 390,-529.03 386.5,-539.03 393.5,-539.03"/>
</g>
<!-- return_to_astrid -->
<g id="node42" class="node">
<title>return_to_astrid</title>
<polygon fill="none" stroke="black" points="438.12,-455 341.88,-455 341.88,-419 438.12,-419 438.12,-455"/>
<text text-anchor="middle" x="390" y="-431.95" font-family="Times,serif" font-size="14.00">return to astrid</text>
</g>
<!-- meet_delvin&#45;&gt;return_to_astrid -->
<g id="edge40" class="edge">
<title>meet_delvin&#45;&gt;return_to_astrid</title>
<path fill="none" stroke="black" d="M390,-491.81C390,-484.05 390,-474.68 390,-465.95"/>
<polygon fill="black" stroke="black" points="393.5,-466.03 390,-456.03 386.5,-466.03 393.5,-466.03"/>
</g>
<!-- go_to_the_wedding -->
<g id="node43" class="node">
<title>go_to_the_wedding</title>
<polygon fill="none" stroke="black" points="437.88,-359.5 262.12,-359.5 262.12,-323.5 437.88,-323.5 437.88,-359.5"/>
<text text-anchor="middle" x="350" y="-336.45" font-family="Times,serif" font-size="14.00">Go to Vittoria Vici&#39;s wedding</text>
</g>
<!-- return_to_astrid&#45;&gt;go_to_the_wedding -->
<g id="edge57" class="edge">
<title>return_to_astrid:e&#45;&gt;go_to_the_wedding:e</title>
<path fill="none" stroke="black" d="M439,-437C477.63,-437 481.1,-357.89 449.41,-343.67"/>
<polygon fill="black" stroke="black" points="450.5,-340.12 440,-341.5 449.07,-346.97 450.5,-340.12"/>
</g>
<!-- kill_vittoria -->
<g id="node44" class="node">
<title>kill_vittoria</title>
<polygon fill="none" stroke="black" points="415,-286.5 285,-286.5 285,-250.5 415,-250.5 415,-286.5"/>
<text text-anchor="middle" x="350" y="-263.45" font-family="Times,serif" font-size="14.00">assinate Vittoria Vici</text>
</g>
<!-- go_to_the_wedding&#45;&gt;kill_vittoria -->
<g id="edge41" class="edge">
<title>go_to_the_wedding&#45;&gt;kill_vittoria</title>
<path fill="none" stroke="black" d="M350,-323.31C350,-315.55 350,-306.18 350,-297.45"/>
<polygon fill="black" stroke="black" points="353.5,-297.53 350,-287.53 346.5,-297.53 353.5,-297.53"/>
</g>
<!-- bonus_test -->
<g id="node46" class="node">
<title>bonus_test</title>
<polygon fill="none" stroke="black" points="350,-213.5 143.47,-195.5 350,-177.5 556.53,-195.5 350,-213.5"/>
<text text-anchor="middle" x="350" y="-190.45" font-family="Times,serif" font-size="14.00">killed vittoria vici during her speech</text>
</g>
<!-- kill_vittoria&#45;&gt;bonus_test -->
<g id="edge42" class="edge">
<title>kill_vittoria&#45;&gt;bonus_test</title>
<path fill="none" stroke="black" d="M350,-250.31C350,-242.55 350,-233.18 350,-224.45"/>
<polygon fill="black" stroke="black" points="353.5,-224.53 350,-214.53 346.5,-224.53 353.5,-224.53"/>
</g>
<!-- bud_report_to_astrid -->
<g id="node45" class="node">
<title>bud_report_to_astrid</title>
<polygon fill="none" stroke="black" points="398.12,-52 301.88,-52 301.88,-16 398.12,-16 398.12,-52"/>
<text text-anchor="middle" x="350" y="-28.95" font-family="Times,serif" font-size="14.00">report to astrid</text>
</g>
<!-- bonus -->
<g id="node47" class="node">
<title>bonus</title>
<polygon fill="none" stroke="black" points="340.5,-125 153.5,-125 153.5,-89 340.5,-89 340.5,-125"/>
<text text-anchor="middle" x="247" y="-101.95" font-family="Times,serif" font-size="14.00">favor with astrid increases by 1</text>
</g>
<!-- bonus_test&#45;&gt;bonus -->
<g id="edge43" class="edge">
<title>bonus_test&#45;&gt;bonus</title>
<path fill="none" stroke="black" d="M331.59,-179.04C316.17,-166.09 293.9,-147.38 276.07,-132.42"/>
<polygon fill="black" stroke="black" points="278.64,-129.16 268.73,-125.41 274.14,-134.52 278.64,-129.16"/>
<text text-anchor="middle" x="316" y="-146.2" font-family="Times,serif" font-size="14.00">yes</text>
</g>
<!-- no_bonus -->
<g id="node48" class="node">
<title>no_bonus</title>
<polygon fill="none" stroke="black" points="547.62,-125 358.38,-125 358.38,-89 547.62,-89 547.62,-125"/>
<text text-anchor="middle" x="453" y="-101.95" font-family="Times,serif" font-size="14.00">favor with astrid stays the same</text>
</g>
<!-- bonus_test&#45;&gt;no_bonus -->
<g id="edge44" class="edge">
<title>bonus_test&#45;&gt;no_bonus</title>
<path fill="none" stroke="black" d="M368.41,-179.04C383.83,-166.09 406.1,-147.38 423.93,-132.42"/>
<polygon fill="black" stroke="black" points="425.86,-134.52 431.27,-125.41 421.36,-129.16 425.86,-134.52"/>
<text text-anchor="middle" x="416.75" y="-146.2" font-family="Times,serif" font-size="14.00">no</text>
</g>
<!-- bonus&#45;&gt;bud_report_to_astrid -->
<g id="edge45" class="edge">
<title>bonus&#45;&gt;bud_report_to_astrid</title>
<path fill="none" stroke="black" d="M272.2,-88.63C285.29,-79.61 301.48,-68.44 315.7,-58.64"/>
<polygon fill="black" stroke="black" points="317.46,-60.99 323.71,-52.44 313.49,-55.23 317.46,-60.99"/>
</g>
<!-- no_bonus&#45;&gt;bud_report_to_astrid -->
<g id="edge46" class="edge">
<title>no_bonus&#45;&gt;bud_report_to_astrid</title>
<path fill="none" stroke="black" d="M427.8,-88.63C414.71,-79.61 398.52,-68.44 384.3,-58.64"/>
<polygon fill="black" stroke="black" points="386.51,-55.23 376.29,-52.44 382.54,-60.99 386.51,-55.23"/>
</g>
</g>
</svg>
